<?xml version="1.0" standalone="no"?>
<!DOCTYPE svg PUBLIC "-//W3C//DTD SVG 1.1//EN" "http://www.w3.org/Graphics/SVG/1.1/DTD/svg11.dtd" >
<svg xmlns="http://www.w3.org/2000/svg">
<metadata></metadata>
<defs>
<font id="texgyreheroscnbold" horiz-adv-x="933" >
<font-face units-per-em="2048" ascent="1624" descent="-424" />
<missing-glyph horiz-adv-x="466" />
<glyph unicode="&#xfb01;" horiz-adv-x="1026" d="M16 885v205h129v88q0 161 67 236t208 75q56 0 110 -4v-232h-67q-55 0 -69.5 -21t-14.5 -99v-43h156v-205h-156v-885h-234v885h-129zM676 0v1090h233v-1090h-233zM678 1266v235h233v-235h-233z" />
<glyph unicode="&#xfb02;" horiz-adv-x="1026" d="M16 885v205h129v88q0 161 67 236t208 75q56 0 110 -4v-232h-67q-55 0 -69.5 -21t-14.5 -99v-43h156v-205h-156v-885h-234v885h-129zM676 0v1470h233v-1470h-233z" />
<glyph unicode="&#xfb03;" horiz-adv-x="1556" d="M16 885v205h129v88q0 161 67 236t208 75q56 0 110 -4v-232h-67q-55 0 -69.5 -21t-14.5 -99v-43h297v88q0 161 66.5 236t207.5 75q57 0 111 -4v-232h-68q-55 0 -69.5 -21t-14.5 -99v-43h156v-205h-156v-885h-233v885h-297v-885h-234v885h-129zM1206 0v1090h234v-1090h-234 zM1208 1266v235h234v-235h-234z" />
<glyph unicode="&#xfb04;" horiz-adv-x="1556" d="M16 885v205h129v88q0 161 67 236t208 75q56 0 110 -4v-232h-67q-55 0 -69.5 -21t-14.5 -99v-43h297v88q0 161 66.5 236t207.5 75q57 0 111 -4v-232h-68q-55 0 -69.5 -21t-14.5 -99v-43h156v-205h-156v-885h-233v885h-297v-885h-234v885h-129zM1206 0v1470h234v-1470h-234 z" />
<glyph horiz-adv-x="0" />
<glyph horiz-adv-x="682" />
<glyph unicode=" "  horiz-adv-x="466" />
<glyph unicode="&#x09;" horiz-adv-x="466" />
<glyph unicode="&#xa0;" horiz-adv-x="466" />
<glyph unicode="!" horiz-adv-x="559" d="M152 1096v374h258v-374l-68 -688h-123zM158 0v291h245v-291h-245z" />
<glyph unicode="&#x22;" horiz-adv-x="796" d="M164 915v555h164v-555h-164zM467 915v555h164v-555h-164z" />
<glyph unicode="#" d="M31 408l20 184h162l29 246h-162l20 184h162l47 408h158l-47 -408h164l45 408h157l-45 -408h162l-20 -184h-162l-29 -246h162l-20 -184h-162l-47 -408h-158l47 408h-164l-45 -408h-158l46 408h-162zM371 592h164l28 246h-164z" />
<glyph unicode="$" d="M51 440h219q0 -128 35 -182.5t123 -75.5v430q-198 67 -275 160t-77 258q0 184 89 296.5t263 127.5v133h78v-133q354 -42 354 -428h-217q0 113 -34 162t-103 49v-383q118 -47 189 -89t113 -95t56.5 -111.5t14.5 -146.5q0 -189 -94 -307.5t-279 -139.5v-201h-78v201 q-204 22 -290.5 131.5t-86.5 343.5zM287 1069q0 -74 34 -118.5t107 -67.5v354q-68 -8 -104.5 -51.5t-36.5 -116.5zM506 182q72 9 109.5 59.5t37.5 135.5q0 75 -34.5 122.5t-112.5 78.5v-396z" />
<glyph unicode="%" horiz-adv-x="1492" d="M47 1065q0 198 64.5 293.5t197.5 95.5q256 0 256 -387t-258 -387q-260 0 -260 385zM215 1057q0 -131 19.5 -182.5t70.5 -51.5q52 0 72 53t20 191q0 137 -19.5 190.5t-70.5 53.5q-54 0 -73 -53t-19 -201zM346 -39l668 1493h125l-668 -1493h-125zM928 360q0 198 64.5 294 t197.5 96q256 0 256 -388q0 -387 -258 -387q-260 0 -260 385zM1096 354q0 -132 19.5 -183.5t70.5 -51.5q52 0 72 53t20 193q0 137 -19.5 189t-70.5 52q-54 0 -73 -52.5t-19 -199.5z" />
<glyph unicode="&#x26;" horiz-adv-x="1212" d="M90 389q0 128 56 228t176 190l26 18q-110 157 -110 310q0 145 89 240t224 95q132 0 217.5 -94.5t85.5 -240.5q0 -108 -48 -193t-151 -162l170 -258q53 104 64 242h209q-12 -144 -42 -239t-98 -203l220 -322h-285l-82 125q-75 -88 -153.5 -126t-182.5 -38 q-170 0 -277.5 119.5t-107.5 308.5zM326 408q0 -88 49 -146.5t123 -58.5q51 0 95 23.5t97 78.5l-221 338q-89 -80 -116 -124t-27 -111zM453 1137q0 -38 19.5 -79.5t68.5 -107.5q61 51 84.5 91t23.5 92q0 54 -27 86t-71 32q-43 0 -70.5 -31.5t-27.5 -82.5z" />
<glyph unicode="'" horiz-adv-x="399" d="M117 915v555h166v-555h-166z" />
<glyph unicode="(" horiz-adv-x="559" d="M59 539q0 244 66 465.5t229 498.5h172q-126 -271 -175.5 -484t-49.5 -482q0 -265 50 -478.5t175 -482.5h-172q-159 268 -227 490t-68 473z" />
<glyph unicode=")" horiz-adv-x="559" d="M33 -424q125 266 175 481.5t50 483.5q0 262 -49.5 473.5t-175.5 488.5h172q161 -275 228 -494t67 -470q0 -245 -67 -468.5t-228 -494.5h-172z" />
<glyph unicode="*" horiz-adv-x="653" d="M45 1147l39 149l172 -69v243h141v-243l170 69l41 -149l-176 -66l115 -198l-105 -90l-114 186l-117 -186l-105 90l113 198z" />
<glyph unicode="+" horiz-adv-x="980" d="M117 424v176h286v287h177v-287h284v-176h-284v-285h-177v285h-286z" />
<glyph unicode="," horiz-adv-x="466" d="M106 0v301h252v-260q0 -162 -64 -259.5t-188 -125.5v108q72 29 103 81t39 155h-142z" />
<glyph unicode="-" horiz-adv-x="559" d="M45 440v267h469v-267h-469z" />
<glyph unicode="." horiz-adv-x="466" d="M106 0v301h252v-301h-252z" />
<glyph unicode="/" horiz-adv-x="466" d="M-55 -39l381 1548h196l-381 -1548h-196z" />
<glyph unicode="0" d="M53 702q0 394 103 573t317 179q408 0 408 -745q0 -385 -103 -566.5t-311 -181.5q-209 0 -311.5 183t-102.5 558zM295 688q0 -187 17 -294.5t54 -155.5t101 -48q97 0 134.5 113.5t37.5 405.5q0 195 -16.5 306t-53 160.5t-100.5 49.5q-68 0 -105 -49t-53 -163t-16 -325z " />
<glyph unicode="1" d="M117 1001v201h33q135 0 209 64t83 188h193v-1454h-234v1001h-284z" />
<glyph unicode="2" d="M43 0q5 115 22 192t62.5 156t115 152t191.5 178q103 94 145 165.5t42 155.5q0 96 -46.5 154.5t-121.5 58.5q-88 0 -128 -63.5t-40 -208.5h-228q0 261 103 387.5t289 126.5q181 0 294 -127t113 -330q0 -220 -141 -376q-23 -26 -49 -49.5t-144 -125.5q-102 -89 -132 -121 t-50 -73h518v-252h-815z" />
<glyph unicode="3" d="M45 446h231v-18q1 -114 45.5 -176t124.5 -62t129.5 65t49.5 171q0 114 -60.5 162t-206.5 49v205h37q101 0 150 46.5t49 143.5q0 89 -40.5 141t-109.5 52q-156 0 -159 -238h-219q21 467 387 467q170 0 273 -108.5t103 -288.5q0 -101 -35 -170.5t-110 -116.5 q182 -80 182 -340q0 -209 -114 -339t-297 -130q-393 0 -410 485z" />
<glyph unicode="4" d="M45 322v245l438 887h267v-911h133v-221h-133v-322h-234v322h-471zM219 543h303v633z" />
<glyph unicode="5" d="M45 389h236q21 -199 163 -199q82 0 131.5 74.5t49.5 196.5q0 121 -49 191.5t-132 70.5q-52 0 -88.5 -25.5t-64.5 -79.5l-209 13l82 799h655v-242h-485l-43 -316q55 44 101.5 62t107.5 18q161 0 263.5 -130.5t102.5 -336.5q0 -236 -116 -380t-308 -144 q-171 0 -276.5 110.5t-120.5 317.5z" />
<glyph unicode="6" d="M51 698q0 381 111.5 568.5t318.5 187.5q161 0 249.5 -86.5t117.5 -282.5h-234q-15 140 -135 140q-94 0 -139 -94.5t-59 -317.5q44 69 96 98t129 29q164 0 265 -127.5t101 -333.5q0 -231 -110.5 -374.5t-288.5 -143.5q-422 0 -422 737zM287 461q0 -119 51.5 -195 t132.5 -76q77 0 121.5 73.5t44.5 199.5q0 112 -47 180t-125 68q-82 0 -130 -67.5t-48 -182.5z" />
<glyph unicode="7" d="M45 1178v252h842v-220q-201 -271 -307.5 -567.5t-128.5 -642.5h-242q19 316 127 615.5t299 562.5h-590z" />
<glyph unicode="8" d="M53 416q0 128 43 211t140 145q-78 52 -112 118.5t-34 166.5q0 178 103.5 287.5t271.5 109.5q166 0 270.5 -106.5t104.5 -276.5q0 -100 -33 -169t-105 -120q99 -66 139 -143t40 -201q0 -214 -115.5 -345.5t-302.5 -131.5q-188 0 -299 123t-111 332zM295 422 q0 -106 47 -169t125 -63q76 0 124 64.5t48 167.5q0 100 -48 162.5t-124 62.5q-80 0 -126 -60.5t-46 -164.5zM315 1049q0 -79 44 -132t110 -53t105.5 49t39.5 131q0 80 -39 130.5t-102 50.5q-72 0 -115 -48t-43 -128z" />
<glyph unicode="9" d="M51 946q0 234 109.5 371t296.5 137q420 0 420 -729q0 -363 -112 -563.5t-325 -200.5q-149 0 -246.5 97.5t-117.5 277.5h231q13 -76 45.5 -111t89.5 -35q60 0 100.5 36.5t67.5 130.5t33 249q-41 -69 -95 -99t-134 -30q-163 0 -263 129t-100 340zM287 971 q0 -129 43.5 -196.5t126.5 -67.5t130.5 67t47.5 184q0 120 -47 190.5t-127 70.5q-83 0 -128.5 -64.5t-45.5 -183.5z" />
<glyph unicode=":" horiz-adv-x="559" d="M154 0v301h252v-301h-252zM154 748v301h252v-301h-252z" />
<glyph unicode=";" horiz-adv-x="559" d="M154 0v301h252v-260q0 -162 -69.5 -264.5t-182.5 -120.5v108q72 29 102.5 81t38.5 155h-141zM154 748v301h252v-301h-252z" />
<glyph unicode="&#x3c;" horiz-adv-x="980" d="M168 453v118l580 652v-267l-396 -444l396 -444v-267z" />
<glyph unicode="=" horiz-adv-x="980" d="M117 240v176h747v-176h-747zM117 608v176h747v-176h-747z" />
<glyph unicode="&#x3e;" horiz-adv-x="980" d="M168 68l395 444l-395 444v267l580 -652v-118l-580 -652v267z" />
<glyph unicode="?" horiz-adv-x="1026" d="M100 1010q0 232 110.5 355.5t297.5 123.5q192 0 309 -117t117 -309q0 -119 -43 -201t-160 -186q-63 -56 -83 -102.5t-21 -147.5h-221q0 164 32.5 242.5t139.5 173.5q58 52 81 98t23 109q0 92 -44.5 145t-121.5 53t-127.5 -61.5t-50.5 -143.5v-32h-238zM399 0v291h246 v-291h-246z" />
<glyph unicode="@" horiz-adv-x="1638" d="M199 733q0 159 51 303t137.5 247.5t207 164.5t253.5 61q122 0 231.5 -49.5t188 -134.5t124.5 -203.5t46 -251.5q0 -157 -64 -294.5t-163.5 -216t-204.5 -78.5q-40 0 -64.5 29.5t-28.5 84.5q-90 -114 -180 -114q-110 0 -189 107.5t-79 258.5q0 203 105.5 349.5 t252.5 146.5q69 0 116 -31t87 -102l23 108h147l-98 -522q-11 -54 -11 -88q0 -39 27 -39q75 0 130.5 107.5t55.5 254.5q0 230 -125 372.5t-327 142.5q-212 0 -346.5 -172t-134.5 -443q0 -267 139 -436.5t360 -169.5q102 0 186 39.5t167 126.5h149q-110 -178 -234 -254 t-278 -76q-137 0 -259 60t-209 163t-138 246t-51 303zM645 664q0 -80 36.5 -129.5t94.5 -49.5q80 0 140.5 85.5t60.5 197.5q0 76 -38 126t-95 50q-80 0 -139.5 -84t-59.5 -196z" />
<glyph unicode="A" horiz-adv-x="1212" d="M33 0l430 1470h291l426 -1470h-275l-78 303h-444l-84 -303h-266zM451 555h307l-152 590z" />
<glyph unicode="B" horiz-adv-x="1212" d="M127 0v1470h586q173 0 272.5 -102.5t99.5 -280.5q0 -109 -34.5 -178t-112.5 -116q99 -54 142.5 -139.5t43.5 -211.5q0 -186 -104 -311q-63 -75 -144.5 -103t-238.5 -28h-510zM369 252h309q95 0 144.5 53.5t49.5 155.5q0 88 -48 136t-134 48h-321v-393zM369 895h295 q87 0 133.5 43.5t46.5 124.5q0 80 -45.5 118t-141.5 38h-288v-324z" />
<glyph unicode="C" horiz-adv-x="1212" d="M74 731q0 359 150.5 568.5t408.5 209.5q209 0 349.5 -138.5t166.5 -381.5h-252q-31 132 -92 193t-166 61q-146 0 -227.5 -135.5t-81.5 -378.5q0 -235 80 -368.5t221 -133.5q105 0 169 65t97 212h252q-104 -543 -522 -543q-257 0 -405 206t-148 564z" />
<glyph unicode="D" horiz-adv-x="1212" d="M127 0v1470h532q233 0 362.5 -185t129.5 -519q0 -164 -32 -302.5t-94 -242.5t-158 -162.5t-218 -58.5h-522zM373 252h245q131 0 204 133.5t73 372.5q0 227 -67.5 344t-213.5 117h-241v-967z" />
<glyph unicode="E" horiz-adv-x="1120" d="M127 0v1470h887v-260h-641v-309h590v-260h-590v-381h669v-260h-915z" />
<glyph unicode="F" horiz-adv-x="1026" d="M127 0v1470h858v-260h-606v-331h530v-261h-530v-618h-252z" />
<glyph unicode="G" horiz-adv-x="1306" d="M74 725q0 359 160 571.5t430 212.5q215 0 356.5 -129.5t173.5 -365.5h-254q-19 107 -94.5 175t-175.5 68q-157 0 -248.5 -143t-91.5 -389q0 -239 89.5 -371.5t250.5 -132.5q112 0 188 74t117 248h-283v250h506v-793h-168l-26 184q-89 -125 -172 -174t-205 -49 q-163 0 -289 95t-195 269t-69 400z" />
<glyph unicode="H" horiz-adv-x="1212" d="M119 0v1470h252v-557h471v557h252v-1470h-252v662h-471v-662h-252z" />
<glyph unicode="I" horiz-adv-x="466" d="M106 0v1470h252v-1470h-252z" />
<glyph unicode="J" d="M37 555h235q0 -143 12.5 -214t43 -99.5t92.5 -28.5q78 0 109.5 47.5t31.5 165.5v1044h252v-1044q0 -233 -96.5 -348t-292.5 -115q-246 0 -332 180q-32 62 -43.5 150t-11.5 262z" />
<glyph unicode="K" horiz-adv-x="1212" d="M145 0v1470h252v-598l461 598h326l-492 -602l520 -868h-323l-375 645l-117 -147v-498h-252z" />
<glyph unicode="L" horiz-adv-x="1026" d="M127 0v1470h252v-1204h600v-266h-852z" />
<glyph unicode="M" horiz-adv-x="1398" d="M117 0v1470h366l222 -1167l217 1167h362v-1470h-233v1247l-230 -1247h-248l-223 1247v-1247h-233z" />
<glyph unicode="N" horiz-adv-x="1212" d="M117 0v1470h264l483 -1032v1032h234v-1470h-250l-498 1055v-1055h-233z" />
<glyph unicode="O" horiz-adv-x="1306" d="M74 733q0 367 159 571.5t429 204.5q255 0 413 -207t158 -567q0 -362 -158.5 -568t-421.5 -206q-266 0 -422.5 207t-156.5 565zM326 739q0 -243 86.5 -380.5t240.5 -137.5t241 138t87 382q0 232 -88.5 370t-235.5 138q-155 0 -243 -136t-88 -374z" />
<glyph unicode="P" horiz-adv-x="1120" d="M127 0v1470h551q170 0 272.5 -124.5t102.5 -331.5q0 -218 -105 -350t-280 -132h-289v-532h-252zM379 784h233q189 0 189 224q0 114 -51 162.5t-170 48.5h-201v-435z" />
<glyph unicode="Q" horiz-adv-x="1306" d="M74 735q0 361 157.5 567.5t421.5 206.5q263 0 421.5 -206t158.5 -570q0 -163 -29.5 -283.5t-97.5 -238.5l131 -152l-133 -165l-141 165q-148 -98 -312 -98q-262 0 -419.5 206t-157.5 568zM326 743q0 -245 86.5 -383.5t238.5 -138.5q69 0 137 39l-120 139l129 166 l129 -145q55 138 55 315q0 238 -88 376t-240 138q-151 0 -239 -137t-88 -369z" />
<glyph unicode="R" horiz-adv-x="1212" d="M127 0v1470h608q173 0 277 -113.5t104 -303.5q0 -122 -46 -213t-140 -135q68 -37 98.5 -80.5t42.5 -123t12 -239.5q0 -125 9.5 -165.5t44.5 -57.5v-39h-279q-29 135 -29 295q0 58 -3.5 100t-8.5 72.5t-18 49.5t-25.5 31t-37 17t-45 6.5t-58.5 1.5h-260v-573h-246z M373 823h297q100 0 147 48t47 149q0 95 -45.5 147t-130.5 52h-315v-396z" />
<glyph unicode="S" horiz-adv-x="1120" d="M66 453h241q8 -122 72 -181t190 -59q117 0 181.5 49.5t64.5 138.5q0 72 -46 111t-173 76l-129 37q-97 28 -164 58.5t-110.5 65t-67 81t-32.5 97t-9 122.5q0 215 122 337.5t337 122.5q217 0 339 -122.5t136 -352.5h-242q-13 117 -70.5 170t-170.5 53q-100 0 -158 -47.5 t-58 -130.5q0 -63 29 -98t98 -55l295 -88q169 -51 242.5 -144t73.5 -256q0 -221 -131.5 -349t-358.5 -128q-233 0 -363.5 125t-137.5 367z" />
<glyph unicode="T" horiz-adv-x="1026" d="M23 1210v260h981v-260h-365v-1210h-252v1210h-364z" />
<glyph unicode="U" horiz-adv-x="1212" d="M121 496v974h256v-954q0 -141 59 -218t168 -77q114 0 174 72t60 209v968h256v-956q0 -270 -125.5 -411.5t-364.5 -141.5q-230 0 -356.5 140t-126.5 395z" />
<glyph unicode="V" horiz-adv-x="1120" d="M33 1470h270l260 -1122l262 1122h262l-409 -1470h-240z" />
<glyph unicode="W" horiz-adv-x="1585" d="M27 1470h268q106 -556 140 -744.5t54 -342.5l168 1087h269l180 -1087l199 1087h256l-340 -1470h-242l-188 1157l-138 -866l-51 -291h-233z" />
<glyph unicode="X" horiz-adv-x="1120" d="M23 0l389 752l-367 718h299l215 -475l221 475h291l-369 -706l394 -764h-308l-229 502l-242 -502h-294z" />
<glyph unicode="Y" horiz-adv-x="1120" d="M25 1470h297l249 -639l240 639h285l-404 -919v-551h-252v555z" />
<glyph unicode="Z" horiz-adv-x="1026" d="M41 0v260l625 950h-609v260h924v-241l-633 -969h637v-260h-944z" />
<glyph unicode="[" horiz-adv-x="559" d="M106 -401v1880h412v-199h-207v-1483h207v-198h-412z" />
<glyph unicode="\" horiz-adv-x="466" d="M-55 1509h196l381 -1548h-196z" />
<glyph unicode="]" horiz-adv-x="559" d="M41 -203h207v1483h-207v199h412v-1880h-412v198z" />
<glyph unicode="^" horiz-adv-x="980" d="M104 662l304 768h165l304 -768h-185l-203 538l-202 -538h-183z" />
<glyph unicode="_" d="M0 -154h934v-102h-934v102z" />
<glyph unicode="`" horiz-adv-x="559" d="M-51 1532h258l158 -299h-170z" />
<glyph unicode="a" d="M49 291q0 143 68 233t194 113l211 39q82 14 82 90q0 123 -145 123q-75 0 -110 -34.5t-46 -117.5h-225q22 207 113 294t278 87q173 0 269 -83t96 -232v-590q0 -80 11 -117.5t40 -52.5v-43h-252q-16 61 -23 129q-69 -87 -132 -122.5t-150 -35.5q-129 0 -204 86t-75 234z M285 309q0 -62 30 -97.5t82 -35.5q86 0 146.5 63t60.5 152v139q-23 -21 -55.5 -33t-104.5 -26q-88 -19 -123.5 -55t-35.5 -107z" />
<glyph unicode="b" horiz-adv-x="1026" d="M102 0v1470h234v-528q53 94 113.5 135t146.5 41q169 0 272 -154t103 -407q0 -267 -102.5 -426.5t-274.5 -159.5q-178 0 -262 172v-143h-230zM328 535q0 -157 53 -242.5t151 -85.5q89 0 143 91t54 243q0 153 -53 240t-146 87q-98 0 -150 -85t-52 -248z" />
<glyph unicode="c" d="M57 530q0 277 112 432.5t312 155.5q172 0 276 -106t124 -312h-238q-17 93 -52.5 135t-98.5 42q-95 0 -144 -85t-49 -249q0 -336 178 -336q67 0 111.5 52t52.5 138h238q-26 -207 -131.5 -316.5t-278.5 -109.5q-198 0 -305 145t-107 414z" />
<glyph unicode="d" horiz-adv-x="1026" d="M57 557q0 253 103 407t272 154q86 0 146 -40.5t114 -135.5v528h234v-1470h-230v143q-84 -172 -262 -172q-172 0 -274.5 159.5t-102.5 426.5zM299 541q0 -154 53 -244t144 -90q98 0 151 84.5t53 240.5q0 160 -51 248t-145 88q-97 0 -151 -86t-54 -241z" />
<glyph unicode="e" d="M39 549q0 267 113 418t311 151q204 0 314 -156t110 -446v-51h-613q10 -136 59.5 -199t145.5 -63q121 0 156 119h242q-52 -180 -151 -265.5t-251 -85.5q-209 0 -322.5 150.5t-113.5 427.5zM281 653h364q-24 230 -184 230q-78 0 -121.5 -55.5t-58.5 -174.5z" />
<glyph unicode="f" horiz-adv-x="559" d="M16 885v205h129v88q0 161 67 236t208 75q56 0 110 -4v-232h-67q-55 0 -69.5 -21t-14.5 -99v-43h156v-205h-156v-885h-234v885h-129z" />
<glyph unicode="g" horiz-adv-x="1026" d="M68 555q0 255 101.5 409t270.5 154q93 0 154.5 -46t107.5 -150v168h226v-1033q0 -139 -28.5 -236.5t-85.5 -155t-135.5 -83.5t-186.5 -26q-177 0 -279.5 77.5t-126.5 249.5h256q11 -58 46.5 -83t109.5 -25q103 0 148.5 58.5t45.5 189.5v141q-46 -95 -99 -132.5 t-142 -37.5q-177 0 -280 151t-103 410zM309 547q0 -146 50 -228.5t139 -82.5q94 0 145 81.5t51 229.5q0 143 -54 232t-142 89t-138.5 -86t-50.5 -235z" />
<glyph unicode="h" horiz-adv-x="1026" d="M109 0v1470h233v-530q72 178 268 178q140 0 224 -99t84 -265v-754h-234v662q0 114 -36 164.5t-116 50.5q-88 0 -139 -67.5t-51 -184.5v-625h-233z" />
<glyph unicode="i" horiz-adv-x="466" d="M117 0v1090h233v-1090h-233zM119 1266v235h233v-235h-233z" />
<glyph unicode="j" horiz-adv-x="466" d="M4 -209h43q37 0 53.5 23t16.5 77v1199h233v-1205q0 -183 -61.5 -253t-222.5 -70h-62v229zM119 1266v235h233v-235h-233z" />
<glyph unicode="k" d="M117 0v1470h233v-794l295 414h289l-316 -422l326 -668h-282l-213 467l-99 -123v-344h-233z" />
<glyph unicode="l" horiz-adv-x="466" d="M117 0v1470h233v-1470h-233z" />
<glyph unicode="m" horiz-adv-x="1492" d="M106 0v1090h226v-166q41 101 104 147.5t158 46.5q85 0 136.5 -37t105.5 -137q52 95 109 134.5t140 39.5q135 0 218 -100.5t83 -263.5v-754h-233v662q0 215 -133 215q-76 0 -117 -58t-41 -166v-653h-233v655q0 123 -31.5 172.5t-108.5 49.5q-149 0 -149 -213v-664h-234z " />
<glyph unicode="n" horiz-adv-x="1026" d="M109 0v1090h225v-166q47 101 113 147.5t161 46.5q141 0 225.5 -98.5t84.5 -265.5v-754h-234v662q0 114 -36 164.5t-116 50.5q-88 0 -139 -67.5t-51 -184.5v-625h-233z" />
<glyph unicode="o" horiz-adv-x="1026" d="M57 543q0 264 125 419.5t338 155.5q204 0 327.5 -157.5t123.5 -417.5q0 -259 -125 -415.5t-332 -156.5t-332 156.5t-125 415.5zM299 545q0 -161 55.5 -246.5t159.5 -85.5t159.5 85.5t55.5 246.5q0 160 -55 246t-158 86q-106 0 -161.5 -84.5t-55.5 -247.5z" />
<glyph unicode="p" horiz-adv-x="1026" d="M104 -424v1514h226v-164q51 103 112 147.5t152 44.5q170 0 273.5 -154t103.5 -407q0 -268 -103 -427t-276 -159q-91 0 -149.5 40t-104.5 134v-569h-234zM330 532q0 -157 52 -241t150 -84q91 0 144 91t53 245q0 152 -53.5 238.5t-147.5 86.5q-198 0 -198 -336z" />
<glyph unicode="q" horiz-adv-x="1026" d="M57 535q0 261 108 422t281 161q90 0 150 -46t106 -150v168h226v-1514h-234v565q-44 -91 -104 -130.5t-152 -39.5q-172 0 -276.5 155t-104.5 409zM299 528q0 -155 51 -235t148 -80q96 0 148 85t52 241q0 152 -54 240.5t-146 88.5q-95 0 -147 -89t-52 -251z" />
<glyph unicode="r" horiz-adv-x="653" d="M106 0v1090h226v-195q53 125 107.5 174t140.5 49q20 0 47 -4v-291q-32 4 -60 4q-115 0 -171 -64t-56 -196v-567h-234z" />
<glyph unicode="s" d="M51 348h242q3 -82 49 -120t141 -38q71 0 112.5 30.5t41.5 82.5q0 42 -47.5 71.5t-147.5 49.5q-186 35 -272 115t-86 217q0 168 99 265t272 97q177 0 272 -81.5t119 -278.5h-232q-12 79 -47 110t-112 31q-142 0 -142 -102q0 -44 45.5 -72t147.5 -47q192 -37 279 -120.5 t87 -217.5q0 -172 -106 -270.5t-291 -98.5q-188 0 -296.5 88t-127.5 289z" />
<glyph unicode="t" horiz-adv-x="559" d="M16 885v205h121v294h234v-294h147v-205h-147v-592q0 -57 17 -72.5t79 -15.5q24 0 51 4v-217q-80 -4 -112 -4h-31q-129 0 -183.5 53t-54.5 182v662h-121z" />
<glyph unicode="u" horiz-adv-x="1026" d="M111 373v717h233v-676q0 -98 38.5 -149.5t113.5 -51.5q87 0 136.5 66t49.5 182v629h233v-1090h-225v160q-46 -97 -113 -143t-165 -46q-145 0 -223 105t-78 297z" />
<glyph unicode="v" d="M23 1090h262l186 -811l191 811h249l-321 -1090h-248z" />
<glyph unicode="w" horiz-adv-x="1306" d="M16 1090h250l142 -793l129 793h235l137 -793l142 793h241l-258 -1090h-241l-142 805l-141 -805h-242z" />
<glyph unicode="x" d="M25 0l305 555l-293 535h285l151 -318l150 318h276l-295 -535l305 -555h-291l-155 328l-154 -328h-284z" />
<glyph unicode="y" d="M16 1090h263l192 -811l184 811h250l-307 -1072q-52 -183 -81.5 -263t-57.5 -117q-31 -41 -77 -58.5t-124 -17.5l-113 4v229q32 -4 50 -4q75 0 104.5 32t46.5 132z" />
<glyph unicode="z" horiz-adv-x="839" d="M33 0v223l461 637h-428v230h725v-236l-453 -618h469v-236h-774z" />
<glyph unicode="{" horiz-adv-x="653" d="M80 444v189q75 6 116.5 46t41.5 109v410q0 121 67 201t168 80h139v-181h-75q-50 0 -72.5 -32.5t-22.5 -102.5v-401q0 -84 -52.5 -144.5t-147.5 -78.5q94 -18 147 -80t53 -144v-401q0 -70 22.5 -102.5t72.5 -32.5h75v-180h-139q-101 0 -168 79.5t-67 200.5v410 q0 69 -41 109t-117 46z" />
<glyph unicode="|" horiz-adv-x="471" d="M147 -401v1880h177v-1880h-177z" />
<glyph unicode="}" horiz-adv-x="653" d="M41 -221h76q49 0 71.5 32t22.5 103v401q0 82 53.5 144t147.5 80q-95 18 -148 79t-53 144v401q0 71 -22.5 103t-71.5 32h-76v181h139q101 0 168.5 -80.5t67.5 -200.5v-410q0 -69 41 -109t116 -46v-189q-76 -6 -116.5 -46t-40.5 -109v-410q0 -120 -67.5 -200t-168.5 -80 h-139v180z" />
<glyph unicode="~" horiz-adv-x="980" d="M102 496q53 106 102 149t118 43q38 0 162 -52t165 -52q40 0 65 16t50 57l115 -110q-53 -106 -102 -149.5t-118 -43.5q-37 0 -162 52.5t-165 52.5t-65 -16.5t-50 -59.5z" />
<glyph unicode="&#xa1;" horiz-adv-x="559" d="M150 -6l67 688h123l68 -688v-375h-258v375zM156 799v291h245v-291h-245z" />
<glyph unicode="&#xa2;" d="M57 526q0 283 112 437.5t316 154.5q35 0 76 -6l41 174h86l-45 -201q217 -96 238 -385h-238q-18 98 -57 140l-148 -625q16 -8 41 -8q66 0 111 52.5t51 137.5h238q-26 -207 -131.5 -316.5t-278.5 -109.5q-46 0 -84 9l-51 -222h-88l57 246q-127 67 -186.5 193.5t-59.5 328.5 zM299 543q0 -104 14 -167t49 -112l144 613h-21q-89 0 -137.5 -86.5t-48.5 -247.5z" />
<glyph unicode="&#xa3;" d="M47 657v123h98q-42 109 -55.5 163.5t-13.5 113.5q0 181 113 297t288 116q186 0 291 -118t115 -355h-219q-14 104 -39 158t-56.5 70t-85.5 16q-77 0 -124.5 -52.5t-47.5 -137.5q0 -33 13.5 -78t68.5 -193h240v-123h-201q8 -63 8 -110q0 -98 -39.5 -171.5t-140.5 -174.5 q72 34 115.5 46.5t89.5 12.5q33 0 114 -25.5t93 -25.5q72 0 168 74l69 -224q-129 -92 -250 -92q-79 0 -208 53q-72 29 -121 29q-34 0 -65.5 -12.5t-119.5 -59.5l-92 199q80 56 133.5 141.5t53.5 157.5q0 81 -37 182h-156z" />
<glyph unicode="&#xa4;" d="M90 545q0 109 57 200l-28 27l125 125l26 -29q92 58 201 58t201 -58l26 29l125 -125l-28 -27q57 -91 57 -200q0 -110 -57 -201l28 -27l-125 -124l-26 28q-91 -57 -201 -57t-201 57l-26 -28l-125 124l28 27q-57 91 -57 201zM266 545q0 -85 60 -145t145 -60t145 60t60 145 t-60 145t-145 60t-145 -60t-60 -145z" />
<glyph unicode="&#xa5;" d="M-14 1430h252l239 -603l232 603h239l-252 -601h226v-122h-279l-63 -152h342v-123h-344v-432h-211v432h-340v123h340l-68 152h-272v122h219z" />
<glyph unicode="&#xa6;" horiz-adv-x="471" d="M147 350h177v-751h-177v751zM147 727v752h177v-752h-177z" />
<glyph unicode="&#xa7;" d="M57 602q0 94 35 157t121 126q-86 108 -86 239q0 158 96.5 261.5t245.5 103.5q307 0 336 -375h-213q-8 80 -39.5 118t-89.5 38q-54 0 -88.5 -33t-34.5 -84q0 -64 63 -104l273 -166q201 -125 201 -314q0 -90 -42.5 -167.5t-117.5 -127.5q55 -60 79.5 -123t24.5 -145 q0 -169 -102.5 -276t-263.5 -107q-154 0 -245 99.5t-104 283.5h222q9 -85 43.5 -124.5t99.5 -39.5q57 0 91 40t34 106q0 43 -21.5 73t-76.5 64l-258 160q-99 62 -141 134.5t-42 182.5zM256 659q0 -68 78 -120l262 -172q72 52 72 131q0 76 -95 135l-245 151q-32 -17 -52 -51 t-20 -74z" />
<glyph unicode="&#xa8;" horiz-adv-x="559" d="M12 1266v235h197v-235h-197zM350 1266v235h197v-235h-197z" />
<glyph unicode="&#xa9;" horiz-adv-x="1236" d="M41 674q0 186 71 348t205 263t301 101q126 0 235.5 -59t183.5 -157.5t116.5 -227.5t42.5 -268t-42.5 -268t-116.5 -227.5t-183.5 -158t-235.5 -59.5q-167 0 -301 101t-205 263.5t-71 348.5zM156 674q0 -156 55 -291.5t162.5 -221t244.5 -85.5q104 0 192 50t146.5 133 t91.5 191t33 224t-33 224t-91.5 191t-146.5 133t-192 50q-137 0 -244.5 -85.5t-162.5 -221t-55 -291.5zM299 672q0 191 89.5 303t240.5 112q128 0 212.5 -79t94.5 -215h-168q-15 67 -47 99t-88 32q-78 0 -120 -66.5t-42 -185.5q0 -115 41.5 -180.5t116.5 -65.5q56 0 89 33.5 t50 109.5h170q-59 -307 -311 -307q-152 0 -240 110t-88 300z" />
<glyph unicode="&#xaa;" horiz-adv-x="620" d="M37 1012q0 85 46.5 142.5t125.5 70.5l139 22q29 5 41 15t12 32q0 68 -94 68q-49 0 -71.5 -18t-30.5 -64h-148q15 123 74 176t180 53q114 0 176 -49.5t62 -140.5v-354q0 -87 35 -101v-26h-164q-8 27 -14 77q-44 -52 -85.5 -73t-99.5 -21q-85 0 -134.5 51.5t-49.5 139.5z M53 565v164h508v-164h-508zM195 1024q0 -35 18.5 -55.5t52.5 -20.5q57 0 96 37t39 90v82q-16 -12 -54 -22.5t-69.5 -19t-57 -31.5t-25.5 -60z" />
<glyph unicode="&#xab;" d="M147 451v245l281 295v-237l-168 -181l168 -180v-237zM506 451v245l280 295v-237l-168 -181l168 -180v-237z" />
<glyph unicode="&#xac;" horiz-adv-x="980" d="M117 608v176h747v-456h-176v280h-571z" />
<glyph unicode="&#xad;" horiz-adv-x="559" d="M45 440v267h469v-267h-469z" />
<glyph unicode="&#xae;" horiz-adv-x="1236" d="M41 674q0 186 71 348t205 263t301 101q126 0 235.5 -59t183.5 -157.5t116.5 -227.5t42.5 -268t-42.5 -268t-116.5 -227.5t-183.5 -158t-235.5 -59.5q-167 0 -301 101t-205 263.5t-71 348.5zM156 674q0 -156 55 -291.5t162.5 -221t244.5 -85.5q104 0 192 50t146.5 133 t91.5 191t33 224t-33 224t-91.5 191t-146.5 133t-192 50q-137 0 -244.5 -85.5t-162.5 -221t-55 -291.5zM319 283v784h359q104 0 166.5 -62.5t62.5 -166.5q0 -124 -90 -179q43 -27 57.5 -71.5t14.5 -157.5q0 -65 4 -81.5t25 -22.5v-43h-181q-20 82 -20 166q0 62 -9.5 89 t-27.5 33.5t-62 6.5h-133v-295h-166zM485 733h156q50 0 73 21t23 67q0 43 -22.5 66.5t-63.5 23.5h-166v-178z" />
<glyph unicode="&#xaf;" horiz-adv-x="559" d="M-10 1309v149h579v-149h-579z" />
<glyph unicode="&#xb0;" horiz-adv-x="671" d="M96 1165q0 121 71 207t171 86q97 0 167 -86.5t70 -206.5q0 -121 -70.5 -207t-168.5 -86q-99 0 -169.5 86t-70.5 207zM190 1165q0 -72 43 -124t103 -52t102.5 52t42.5 124q0 71 -42.5 123.5t-100.5 52.5q-62 0 -105 -51.5t-43 -124.5z" />
<glyph unicode="&#xb1;" horiz-adv-x="980" d="M117 0v176h747v-176h-747zM117 600v176h286v287h177v-287h284v-176h-284v-266h-177v266h-286z" />
<glyph unicode="&#xb2;" horiz-adv-x="559" d="M14 580q7 135 56 214.5t192 192.5q69 59 95 104.5t26 108.5q0 49 -30 84t-72 35q-55 0 -80.5 -41t-30.5 -135h-147q12 336 256 336q117 0 190.5 -83.5t73.5 -215.5q0 -109 -36.5 -168.5t-164.5 -159.5q-92 -72 -111 -104h314v-168h-531z" />
<glyph unicode="&#xb3;" horiz-adv-x="559" d="M14 870h150q2 -83 28.5 -122t81.5 -39q109 0 109 145q0 71 -36.5 99t-129.5 28v131h25q66 0 94.5 25t28.5 82q0 52 -24 79t-69 27q-99 0 -102 -127h-141q3 141 69 211t183 70q110 0 176.5 -65.5t66.5 -174.5q0 -120 -96 -174q119 -49 119 -209q0 -132 -75 -216.5 t-193 -84.5q-123 0 -189 72.5t-76 242.5z" />
<glyph unicode="&#xb4;" horiz-adv-x="559" d="M195 1233l157 299h258l-245 -299h-170z" />
<glyph unicode="&#xb5;" horiz-adv-x="1026" d="M111 -424v1514h233v-676q0 -98 38.5 -149.5t113.5 -51.5q87 0 136.5 66t49.5 182v629h233v-1090h-225v160q-88 -189 -223 -189q-75 0 -123 54v-449h-233z" />
<glyph unicode="&#xb6;" d="M-14 1071q0 184 101 273.5t308 89.5h510v-1825h-188v1651h-170v-1651h-189v1102q-191 9 -281.5 100t-90.5 260z" />
<glyph unicode="&#xb7;" horiz-adv-x="466" d="M106 512q0 52 37 89.5t90 37.5t90 -37.5t37 -89.5t-37 -89.5t-90 -37.5t-90 37.5t-37 89.5z" />
<glyph unicode="&#xb8;" horiz-adv-x="559" d="M10 -440l37 98q90 -33 127 -33q38 0 59 28t21 64q0 31 -19 52.5t-47 21.5q-19 0 -65 -16l-35 41l92 188h99l-56 -121h41q65 0 106.5 -44.5t41.5 -114.5q0 -92 -59.5 -154t-153.5 -62q-43 0 -81.5 10.5t-107.5 41.5z" />
<glyph unicode="&#xb9;" horiz-adv-x="559" d="M43 1176v127h23q176 0 188 151h143v-874h-170v596h-184z" />
<glyph unicode="&#xba;" horiz-adv-x="612" d="M10 1165q0 155 83 249.5t218 94.5q129 0 211 -96.5t82 -247.5q0 -152 -82.5 -248t-214.5 -96t-214.5 95t-82.5 249zM55 565v164h502v-164h-502zM174 1165q0 -87 37 -141.5t96 -54.5t96 54.5t37 141.5q0 86 -37 141.5t-94 55.5q-61 0 -98 -54.5t-37 -142.5z" />
<glyph unicode="&#xbb;" d="M147 156v237l168 180l-168 181v237l281 -295v-245zM506 156v237l168 180l-168 181v237l280 -295v-245z" />
<glyph unicode="&#xbc;" horiz-adv-x="1400" d="M43 1176v127h23q176 0 188 151h143v-874h-170v596h-184zM227 -51l719 1505h131l-717 -1505h-133zM735 184v150l285 534h182v-544h84v-140h-84v-184h-160v184h-307zM856 322h197v380z" />
<glyph unicode="&#xbd;" horiz-adv-x="1400" d="M43 1176v127h23q176 0 188 151h143v-874h-170v596h-184zM227 -51l719 1505h131l-717 -1505h-133zM805 0q6 135 54.5 215t191.5 193q69 58 94.5 104t25.5 109q0 49 -29.5 83.5t-72.5 34.5q-54 0 -79.5 -42t-28.5 -134h-148q3 169 69.5 252.5t184.5 83.5q117 0 190.5 -83.5 t73.5 -215.5q0 -108 -37 -169t-164 -159q-84 -67 -110 -104h313v-168h-528z" />
<glyph unicode="&#xbe;" horiz-adv-x="1400" d="M27 870h151l-2 -22q0 -63 31 -101t82 -38q53 0 80.5 37.5t27.5 107.5q0 71 -36.5 99t-131.5 28v131h25q66 0 94.5 25t28.5 82q0 106 -92 106q-100 0 -103 -127h-143q15 281 252 281q110 0 178 -66.5t68 -173.5q0 -120 -97 -174q121 -49 121 -209q0 -134 -75 -217.5 t-195 -83.5q-121 0 -189 73t-75 242zM301 -51l719 1505h131l-717 -1505h-133zM791 184v150l284 534h182v-544h84v-140h-84v-184h-159v184h-307zM909 324h193v370z" />
<glyph unicode="&#xbf;" horiz-adv-x="1026" d="M92 27q0 119 43 201t160 186q63 56 83 102.5t21 147.5h222q0 -164 -32.5 -242.5t-139.5 -173.5q-59 -53 -82 -98.5t-23 -108.5q0 -92 44.5 -145.5t121.5 -53.5t127.5 61.5t50.5 143.5v33h238q0 -232 -110.5 -355.5t-297.5 -123.5q-192 0 -309 117t-117 309zM381 799v291 h246v-291h-246z" />
<glyph unicode="&#xc0;" horiz-adv-x="1212" d="M33 0l430 1470h291l426 -1470h-275l-78 303h-444l-84 -303h-266zM274 1872h269l147 -258h-160zM451 555h307l-152 590z" />
<glyph unicode="&#xc1;" horiz-adv-x="1212" d="M33 0l430 1470h291l426 -1470h-275l-78 303h-444l-84 -303h-266zM451 555h307l-152 590zM528 1614l148 258h268l-256 -258h-160z" />
<glyph unicode="&#xc2;" horiz-adv-x="1212" d="M33 0l430 1470h291l426 -1470h-275l-78 303h-444l-84 -303h-266zM291 1614l211 258h211l211 -258h-191l-127 127l-125 -127h-190zM451 555h307l-152 590z" />
<glyph unicode="&#xc3;" horiz-adv-x="1212" d="M33 0l430 1470h291l426 -1470h-275l-78 303h-444l-84 -303h-266zM301 1614q22 129 71.5 190.5t131.5 61.5q13 0 113.5 -37t111.5 -37q32 0 50.5 19.5t29.5 62.5h109q-40 -246 -181 -246q-23 0 -127.5 37t-124.5 37q-58 0 -77 -88h-107zM451 555h307l-152 590z" />
<glyph unicode="&#xc4;" horiz-adv-x="1212" d="M33 0l430 1470h291l426 -1470h-275l-78 303h-444l-84 -303h-266zM342 1626v236h197v-236h-197zM451 555h307l-152 590zM680 1626v236h197v-236h-197z" />
<glyph unicode="&#xc5;" horiz-adv-x="1212" d="M33 0l430 1470h291l426 -1470h-275l-78 303h-444l-84 -303h-266zM397 1786q0 71 64 124.5t149 53.5t149 -54.5t64 -127.5q0 -72 -63.5 -126t-149.5 -54t-149.5 54.5t-63.5 129.5zM451 555h307l-152 590zM504 1784q0 -37 31 -62.5t75 -25.5t75.5 25.5t31.5 60.5 q0 37 -31.5 62.5t-75.5 25.5q-43 0 -74.5 -25.5t-31.5 -60.5z" />
<glyph unicode="&#xc6;" horiz-adv-x="1679" d="M8 0l441 1470h1140v-260h-622v-309h561v-260h-561v-381h635v-260h-881v313h-361l-88 -313h-264zM426 555h295v655h-109z" />
<glyph unicode="&#xc7;" horiz-adv-x="1212" d="M74 731q0 359 150.5 568.5t408.5 209.5q209 0 349.5 -138.5t166.5 -381.5h-252q-31 132 -92 193t-166 61q-146 0 -227.5 -135.5t-81.5 -378.5q0 -235 80 -368.5t221 -133.5q105 0 169 65t97 212h252q-99 -516 -479 -541l-37 -80h41q65 0 106 -44.5t41 -114.5 q0 -92 -59.5 -154t-153.5 -62q-43 0 -81 10.5t-107 41.5l37 98q90 -33 127 -33q38 0 59 28t21 64q0 31 -19 52.5t-47 21.5q-20 0 -66 -16l-34 41l71 147q-231 23 -363 227t-132 541z" />
<glyph unicode="&#xc8;" horiz-adv-x="1120" d="M127 0v1470h887v-260h-641v-309h590v-260h-590v-381h669v-260h-915zM238 1872h268l147 -258h-159z" />
<glyph unicode="&#xc9;" horiz-adv-x="1120" d="M127 0v1470h887v-260h-641v-309h590v-260h-590v-381h669v-260h-915zM492 1614l147 258h268l-256 -258h-159z" />
<glyph unicode="&#xca;" horiz-adv-x="1120" d="M127 0v1470h887v-260h-641v-309h590v-260h-590v-381h669v-260h-915zM254 1614l211 258h211l211 -258h-191l-127 127l-125 -127h-190z" />
<glyph unicode="&#xcb;" horiz-adv-x="1120" d="M127 0v1470h887v-260h-641v-309h590v-260h-590v-381h669v-260h-915zM305 1626v236h197v-236h-197zM643 1626v236h197v-236h-197z" />
<glyph unicode="&#xcc;" horiz-adv-x="466" d="M-57 1872h268l147 -258h-159zM106 0v1470h252v-1470h-252z" />
<glyph unicode="&#xcd;" horiz-adv-x="466" d="M106 0v1470h252v-1470h-252zM109 1614l147 258h268l-256 -258h-159z" />
<glyph unicode="&#xce;" horiz-adv-x="466" d="M-84 1614l211 258h211l211 -258h-191l-127 127l-125 -127h-190zM106 0v1470h252v-1470h-252z" />
<glyph unicode="&#xcf;" horiz-adv-x="466" d="M-33 1626v236h197v-236h-197zM106 0v1470h252v-1470h-252zM305 1626v236h197v-236h-197z" />
<glyph unicode="&#xd0;" horiz-adv-x="1212" d="M-8 649v252h135v569h532q233 0 362.5 -184.5t129.5 -517.5q0 -222 -54.5 -392.5t-169.5 -273t-278 -102.5h-522v649h-135zM373 252h248q129 0 201.5 133t72.5 371q0 235 -69 349t-210 114h-243v-318h280v-252h-280v-397z" />
<glyph unicode="&#xd1;" horiz-adv-x="1212" d="M117 0v1470h264l483 -1032v1032h234v-1470h-250l-498 1055v-1055h-233zM301 1614q22 129 71.5 190.5t131.5 61.5q13 0 113.5 -37t111.5 -37q32 0 50.5 19.5t29.5 62.5h109q-40 -246 -181 -246q-23 0 -127.5 37t-124.5 37q-58 0 -77 -88h-107z" />
<glyph unicode="&#xd2;" horiz-adv-x="1306" d="M74 733q0 367 159 571.5t429 204.5q255 0 413 -207t158 -567q0 -362 -158.5 -568t-421.5 -206q-266 0 -422.5 207t-156.5 565zM326 739q0 -243 86.5 -380.5t240.5 -137.5t241 138t87 382q0 232 -88.5 370t-235.5 138q-155 0 -243 -136t-88 -374zM328 1872h268l147 -258 h-159z" />
<glyph unicode="&#xd3;" horiz-adv-x="1306" d="M74 733q0 367 159 571.5t429 204.5q255 0 413 -207t158 -567q0 -362 -158.5 -568t-421.5 -206q-266 0 -422.5 207t-156.5 565zM326 739q0 -243 86.5 -380.5t240.5 -137.5t241 138t87 382q0 232 -88.5 370t-235.5 138q-155 0 -243 -136t-88 -374zM582 1614l147 258h268 l-256 -258h-159z" />
<glyph unicode="&#xd4;" horiz-adv-x="1306" d="M74 733q0 367 159 571.5t429 204.5q255 0 413 -207t158 -567q0 -362 -158.5 -568t-421.5 -206q-266 0 -422.5 207t-156.5 565zM326 739q0 -243 86.5 -380.5t240.5 -137.5t241 138t87 382q0 232 -88.5 370t-235.5 138q-155 0 -243 -136t-88 -374zM344 1614l211 258h211 l211 -258h-191l-127 127l-124 -127h-191z" />
<glyph unicode="&#xd5;" horiz-adv-x="1306" d="M74 733q0 367 159 571.5t429 204.5q255 0 413 -207t158 -567q0 -362 -158.5 -568t-421.5 -206q-266 0 -422.5 207t-156.5 565zM326 739q0 -243 86.5 -380.5t240.5 -137.5t241 138t87 382q0 232 -88.5 370t-235.5 138q-155 0 -243 -136t-88 -374zM354 1614 q22 129 71.5 190.5t131.5 61.5q13 0 113.5 -37t111.5 -37q32 0 50.5 19.5t29.5 62.5h109q-41 -246 -180 -246q-23 0 -127.5 37t-124.5 37q-59 0 -78 -88h-107z" />
<glyph unicode="&#xd6;" horiz-adv-x="1306" d="M74 733q0 367 159 571.5t429 204.5q255 0 413 -207t158 -567q0 -362 -158.5 -568t-421.5 -206q-266 0 -422.5 207t-156.5 565zM326 739q0 -243 86.5 -380.5t240.5 -137.5t241 138t87 382q0 232 -88.5 370t-235.5 138q-155 0 -243 -136t-88 -374zM395 1626v236h197v-236 h-197zM733 1626v236h197v-236h-197z" />
<glyph unicode="&#xd7;" horiz-adv-x="980" d="M164 311l203 203l-203 201l125 125l203 -203l200 203l125 -125l-201 -201l201 -203l-125 -125l-200 203l-203 -203z" />
<glyph unicode="&#xd8;" horiz-adv-x="1306" d="M55 23l144 190q-66 115 -95.5 235.5t-29.5 282.5q0 364 157 571t420 207q112 0 204 -39t187 -127l138 183l69 -78l-141 -188q67 -117 96 -237.5t29 -283.5q0 -365 -158 -571.5t-422 -206.5q-114 0 -206.5 39.5t-182.5 128.5l-139 -184zM326 733q0 -164 45 -287l510 682 q-52 64 -106 92.5t-122 28.5q-152 0 -239.5 -138.5t-87.5 -377.5zM424 344q51 -64 105.5 -93.5t123.5 -29.5q152 0 240 138t88 376q0 173 -47 291z" />
<glyph unicode="&#xd9;" horiz-adv-x="1212" d="M121 496v974h256v-954q0 -141 59 -218t168 -77q114 0 174 72t60 209v968h256v-956q0 -270 -125.5 -411.5t-364.5 -141.5q-230 0 -356.5 140t-126.5 395zM274 1872h269l147 -258h-160z" />
<glyph unicode="&#xda;" horiz-adv-x="1212" d="M121 496v974h256v-954q0 -141 59 -218t168 -77q114 0 174 72t60 209v968h256v-956q0 -270 -125.5 -411.5t-364.5 -141.5q-230 0 -356.5 140t-126.5 395zM528 1614l148 258h268l-256 -258h-160z" />
<glyph unicode="&#xdb;" horiz-adv-x="1212" d="M121 496v974h256v-954q0 -141 59 -218t168 -77q114 0 174 72t60 209v968h256v-956q0 -270 -125.5 -411.5t-364.5 -141.5q-230 0 -356.5 140t-126.5 395zM291 1614l211 258h211l211 -258h-191l-127 127l-125 -127h-190z" />
<glyph unicode="&#xdc;" horiz-adv-x="1212" d="M121 496v974h256v-954q0 -141 59 -218t168 -77q114 0 174 72t60 209v968h256v-956q0 -270 -125.5 -411.5t-364.5 -141.5q-230 0 -356.5 140t-126.5 395zM342 1626v236h197v-236h-197zM680 1626v236h197v-236h-197z" />
<glyph unicode="&#xdd;" horiz-adv-x="1120" d="M25 1470h297l249 -639l240 639h285l-404 -919v-551h-252v555zM487 1614l148 258h268l-256 -258h-160z" />
<glyph unicode="&#xde;" horiz-adv-x="1120" d="M127 0v1470h252v-200h299q170 0 272.5 -126t102.5 -337q0 -218 -105 -349.5t-280 -131.5h-289v-326h-252zM379 578h233q96 0 142.5 55t46.5 170q0 114 -52 164.5t-169 50.5h-201v-440z" />
<glyph unicode="&#xdf;" horiz-adv-x="1026" d="M117 0v1104q0 181 106.5 287t288.5 106q185 0 289 -103t104 -286t-123 -266q104 -65 147.5 -148t43.5 -221q0 -230 -110 -366t-296 -136q-29 0 -98 13v225h8q8 -2 41 -2q107 0 163 64t56 188q0 129 -56.5 184.5t-199.5 67.5v198q108 5 148.5 42.5t40.5 133.5 q0 88 -43 135.5t-121 47.5q-72 0 -114 -49t-42 -134v-1085h-233z" />
<glyph unicode="&#xe0;" d="M49 291q0 143 68 233t194 113l211 39q82 14 82 90q0 123 -145 123q-75 0 -110 -34.5t-46 -117.5h-225q22 207 113 294t278 87q173 0 269 -83t96 -232v-590q0 -80 11 -117.5t40 -52.5v-43h-252q-16 61 -23 129q-69 -87 -132 -122.5t-150 -35.5q-129 0 -204 86t-75 234z M139 1532h258l158 -299h-170zM285 309q0 -62 30 -97.5t82 -35.5q86 0 146.5 63t60.5 152v139q-23 -21 -55.5 -33t-104.5 -26q-88 -19 -123.5 -55t-35.5 -107z" />
<glyph unicode="&#xe1;" d="M49 291q0 143 68 233t194 113l211 39q82 14 82 90q0 123 -145 123q-75 0 -110 -34.5t-46 -117.5h-225q22 207 113 294t278 87q173 0 269 -83t96 -232v-590q0 -80 11 -117.5t40 -52.5v-43h-252q-16 61 -23 129q-69 -87 -132 -122.5t-150 -35.5q-129 0 -204 86t-75 234z M285 309q0 -62 30 -97.5t82 -35.5q86 0 146.5 63t60.5 152v139q-23 -21 -55.5 -33t-104.5 -26q-88 -19 -123.5 -55t-35.5 -107zM383 1233l158 299h258l-246 -299h-170z" />
<glyph unicode="&#xe2;" d="M49 291q0 143 68 233t194 113l211 39q82 14 82 90q0 123 -145 123q-75 0 -110 -34.5t-46 -117.5h-225q22 207 113 294t278 87q173 0 269 -83t96 -232v-590q0 -80 11 -117.5t40 -52.5v-43h-252q-16 61 -23 129q-69 -87 -132 -122.5t-150 -35.5q-129 0 -204 86t-75 234z M172 1233l190 299h211l191 -299h-191l-106 168l-105 -168h-190zM285 309q0 -62 30 -97.5t82 -35.5q86 0 146.5 63t60.5 152v139q-23 -21 -55.5 -33t-104.5 -26q-88 -19 -123.5 -55t-35.5 -107z" />
<glyph unicode="&#xe3;" d="M49 291q0 143 68 233t194 113l211 39q82 14 82 90q0 123 -145 123q-75 0 -110 -34.5t-46 -117.5h-225q22 207 113 294t278 87q173 0 269 -83t96 -232v-590q0 -80 11 -117.5t40 -52.5v-43h-252q-16 61 -23 129q-69 -87 -132 -122.5t-150 -35.5q-129 0 -204 86t-75 234z M160 1253q22 129 71 190.5t131 61.5q13 0 114 -36.5t112 -36.5q32 0 50.5 19t29.5 62h108q-40 -245 -180 -245q-23 0 -127.5 36.5t-124.5 36.5q-59 0 -78 -88h-106zM285 309q0 -62 30 -97.5t82 -35.5q86 0 146.5 63t60.5 152v139q-23 -21 -55.5 -33t-104.5 -26 q-88 -19 -123.5 -55t-35.5 -107z" />
<glyph unicode="&#xe4;" d="M49 291q0 143 68 233t194 113l211 39q82 14 82 90q0 123 -145 123q-75 0 -110 -34.5t-46 -117.5h-225q22 207 113 294t278 87q173 0 269 -83t96 -232v-590q0 -80 11 -117.5t40 -52.5v-43h-252q-16 61 -23 129q-69 -87 -132 -122.5t-150 -35.5q-129 0 -204 86t-75 234z M201 1266v235h196v-235h-196zM285 309q0 -62 30 -97.5t82 -35.5q86 0 146.5 63t60.5 152v139q-23 -21 -55.5 -33t-104.5 -26q-88 -19 -123.5 -55t-35.5 -107zM539 1266v235h196v-235h-196z" />
<glyph unicode="&#xe5;" d="M49 291q0 143 68 233t194 113l211 39q82 14 82 90q0 123 -145 123q-75 0 -110 -34.5t-46 -117.5h-225q22 207 113 294t278 87q173 0 269 -83t96 -232v-590q0 -80 11 -117.5t40 -52.5v-43h-252q-16 61 -23 129q-69 -87 -132 -122.5t-150 -35.5q-129 0 -204 86t-75 234z M256 1386q0 71 64 125t149 54t149 -55t64 -128q0 -72 -63.5 -126t-149.5 -54t-149.5 54.5t-63.5 129.5zM285 309q0 -62 30 -97.5t82 -35.5q86 0 146.5 63t60.5 152v139q-23 -21 -55.5 -33t-104.5 -26q-88 -19 -123.5 -55t-35.5 -107zM362 1384q0 -37 31.5 -62.5t75.5 -25.5 t75 25.5t31 60.5q0 37 -31 62.5t-75 25.5q-43 0 -75 -25.5t-32 -60.5z" />
<glyph unicode="&#xe6;" horiz-adv-x="1492" d="M49 301q0 126 60 209t167 106l220 46q78 15 99 33t21 71q0 65 -36.5 94t-118.5 29q-75 0 -111 -37t-39 -117h-229q19 198 114.5 290.5t276.5 92.5q91 0 157.5 -28t129.5 -93q70 67 130 94t140 27q194 0 303 -158.5t109 -443.5v-51h-613q10 -136 59.5 -199t145.5 -63 q121 0 156 119h242q-52 -181 -152 -266t-254 -85q-117 0 -187.5 39t-133.5 137q-104 -176 -338 -176q-153 0 -235.5 85.5t-82.5 244.5zM285 309q0 -63 33 -98t92 -35q79 0 140.5 63.5t61.5 145.5v135q-20 -22 -55 -34t-119 -27q-89 -17 -121 -48.5t-32 -101.5zM836 653h364 q-24 230 -184 230q-78 0 -121.5 -55.5t-58.5 -174.5z" />
<glyph unicode="&#xe7;" d="M57 530q0 277 112 432.5t312 155.5q172 0 276 -106t124 -312h-238q-17 93 -52.5 135t-98.5 42q-95 0 -144 -85t-49 -249q0 -336 178 -336q67 0 111.5 52t52.5 138h238q-25 -195 -119.5 -303.5t-249.5 -120.5l-41 -90h41q65 0 106 -44.5t41 -114.5q0 -92 -59.5 -154 t-153.5 -62q-43 0 -81 10.5t-107 41.5l37 98q90 -33 127 -33q38 0 59 28t21 64q0 31 -19 52.5t-47 21.5q-19 0 -65 -16l-35 41l78 159q-171 20 -263 163.5t-92 391.5z" />
<glyph unicode="&#xe8;" d="M39 549q0 267 113 418t311 151q204 0 314 -156t110 -446v-51h-613q10 -136 59.5 -199t145.5 -63q121 0 156 119h242q-52 -180 -151 -265.5t-251 -85.5q-209 0 -322.5 150.5t-113.5 427.5zM137 1532h258l158 -299h-170zM281 653h364q-24 230 -184 230q-78 0 -121.5 -55.5 t-58.5 -174.5z" />
<glyph unicode="&#xe9;" d="M39 549q0 267 113 418t311 151q204 0 314 -156t110 -446v-51h-613q10 -136 59.5 -199t145.5 -63q121 0 156 119h242q-52 -180 -151 -265.5t-251 -85.5q-209 0 -322.5 150.5t-113.5 427.5zM281 653h364q-24 230 -184 230q-78 0 -121.5 -55.5t-58.5 -174.5zM381 1233 l158 299h258l-246 -299h-170z" />
<glyph unicode="&#xea;" d="M39 549q0 267 113 418t311 151q204 0 314 -156t110 -446v-51h-613q10 -136 59.5 -199t145.5 -63q121 0 156 119h242q-52 -180 -151 -265.5t-251 -85.5q-209 0 -322.5 150.5t-113.5 427.5zM170 1233l190 299h211l191 -299h-191l-106 168l-105 -168h-190zM281 653h364 q-24 230 -184 230q-78 0 -121.5 -55.5t-58.5 -174.5z" />
<glyph unicode="&#xeb;" d="M39 549q0 267 113 418t311 151q204 0 314 -156t110 -446v-51h-613q10 -136 59.5 -199t145.5 -63q121 0 156 119h242q-52 -180 -151 -265.5t-251 -85.5q-209 0 -322.5 150.5t-113.5 427.5zM199 1266v235h196v-235h-196zM281 653h364q-24 230 -184 230q-78 0 -121.5 -55.5 t-58.5 -174.5zM537 1266v235h196v-235h-196z" />
<glyph unicode="&#xec;" horiz-adv-x="466" d="M-66 1532h259l157 -299h-170zM117 0v1090h233v-1090h-233z" />
<glyph unicode="&#xed;" horiz-adv-x="466" d="M117 0v1090h233v-1090h-233zM117 1233l157 299h258l-245 -299h-170z" />
<glyph unicode="&#xee;" horiz-adv-x="466" d="M-63 1233l190 299h211l190 -299h-190l-107 168l-104 -168h-190zM117 0v1090h233v-1090h-233z" />
<glyph unicode="&#xef;" horiz-adv-x="466" d="M-35 1266v235h197v-235h-197zM117 0v1090h233v-1090h-233zM303 1266v235h197v-235h-197z" />
<glyph unicode="&#xf0;" horiz-adv-x="1026" d="M57 532q0 235 114.5 387t291.5 152q74 0 126 -29.5t101 -99.5q-31 80 -69 139.5t-103 128.5l-180 -96l-107 107l183 96q-72 63 -123 92l182 100q69 -37 131 -90l172 90l105 -106l-170 -90q138 -175 199 -345.5t61 -371.5q0 -284 -125 -454.5t-334 -170.5 q-204 0 -329.5 154t-125.5 407zM299 516q0 -138 59.5 -220.5t157.5 -82.5t155.5 86.5t57.5 232.5q0 132 -58.5 214.5t-152.5 82.5q-100 0 -159.5 -85t-59.5 -228z" />
<glyph unicode="&#xf1;" horiz-adv-x="1026" d="M109 0v1090h225v-166q47 101 113 147.5t161 46.5q141 0 225.5 -98.5t84.5 -265.5v-754h-234v662q0 114 -36 164.5t-116 50.5q-88 0 -139 -67.5t-51 -184.5v-625h-233zM205 1253q22 129 71.5 190.5t131.5 61.5q13 0 113.5 -36.5t111.5 -36.5q32 0 50.5 19t29.5 62h108 q-40 -245 -180 -245q-23 0 -127.5 36.5t-124.5 36.5q-59 0 -78 -88h-106z" />
<glyph unicode="&#xf2;" horiz-adv-x="1026" d="M57 543q0 264 125 419.5t338 155.5q204 0 327.5 -157.5t123.5 -417.5q0 -259 -125 -415.5t-332 -156.5t-332 156.5t-125 415.5zM182 1532h258l158 -299h-170zM299 545q0 -161 55.5 -246.5t159.5 -85.5t159.5 85.5t55.5 246.5q0 160 -55 246t-158 86q-106 0 -161.5 -84.5 t-55.5 -247.5z" />
<glyph unicode="&#xf3;" horiz-adv-x="1026" d="M57 543q0 264 125 419.5t338 155.5q204 0 327.5 -157.5t123.5 -417.5q0 -259 -125 -415.5t-332 -156.5t-332 156.5t-125 415.5zM299 545q0 -161 55.5 -246.5t159.5 -85.5t159.5 85.5t55.5 246.5q0 160 -55 246t-158 86q-106 0 -161.5 -84.5t-55.5 -247.5zM428 1233 l158 299h258l-246 -299h-170z" />
<glyph unicode="&#xf4;" horiz-adv-x="1026" d="M57 543q0 264 125 419.5t338 155.5q204 0 327.5 -157.5t123.5 -417.5q0 -259 -125 -415.5t-332 -156.5t-332 156.5t-125 415.5zM217 1233l191 299h210l191 -299h-191l-106 168l-104 -168h-191zM299 545q0 -161 55.5 -246.5t159.5 -85.5t159.5 85.5t55.5 246.5 q0 160 -55 246t-158 86q-106 0 -161.5 -84.5t-55.5 -247.5z" />
<glyph unicode="&#xf5;" horiz-adv-x="1026" d="M57 543q0 264 125 419.5t338 155.5q204 0 327.5 -157.5t123.5 -417.5q0 -259 -125 -415.5t-332 -156.5t-332 156.5t-125 415.5zM205 1253q22 129 71.5 190.5t131.5 61.5q13 0 113.5 -36.5t111.5 -36.5q32 0 50.5 19t29.5 62h108q-40 -245 -180 -245q-23 0 -127.5 36.5 t-124.5 36.5q-59 0 -78 -88h-106zM299 545q0 -161 55.5 -246.5t159.5 -85.5t159.5 85.5t55.5 246.5q0 160 -55 246t-158 86q-106 0 -161.5 -84.5t-55.5 -247.5z" />
<glyph unicode="&#xf6;" horiz-adv-x="1026" d="M57 543q0 264 125 419.5t338 155.5q204 0 327.5 -157.5t123.5 -417.5q0 -259 -125 -415.5t-332 -156.5t-332 156.5t-125 415.5zM246 1266v235h196v-235h-196zM299 545q0 -161 55.5 -246.5t159.5 -85.5t159.5 85.5t55.5 246.5q0 160 -55 246t-158 86q-106 0 -161.5 -84.5 t-55.5 -247.5zM584 1266v235h196v-235h-196z" />
<glyph unicode="&#xf7;" horiz-adv-x="980" d="M117 424v176h747v-176h-747zM365 145q0 53 36.5 90t90.5 37q52 0 89 -37t37 -90q0 -54 -36.5 -90.5t-89.5 -36.5q-54 0 -90.5 36.5t-36.5 90.5zM365 881q0 53 36.5 90t90.5 37q52 0 89 -37t37 -90q0 -54 -36.5 -90.5t-89.5 -36.5q-54 0 -90.5 36.5t-36.5 90.5z" />
<glyph unicode="&#xf8;" horiz-adv-x="1026" d="M37 0l123 158q-56 89 -79.5 178t-23.5 209q0 261 124 417t333 156q88 0 158.5 -28.5t142.5 -92.5l115 150l59 -66l-119 -151q54 -90 77.5 -178.5t23.5 -206.5q0 -261 -125 -417.5t-332 -156.5q-88 0 -158 28t-139 91l-117 -149zM299 547q0 -98 25 -180l342 438 q-64 72 -152 72q-104 0 -159.5 -85t-55.5 -245zM367 283q56 -70 145 -70q106 0 161.5 85.5t55.5 248.5q0 101 -24 172z" />
<glyph unicode="&#xf9;" horiz-adv-x="1026" d="M111 373v717h233v-676q0 -98 38.5 -149.5t113.5 -51.5q87 0 136.5 66t49.5 182v629h233v-1090h-225v160q-46 -97 -113 -143t-165 -46q-145 0 -223 105t-78 297zM182 1532h258l158 -299h-170z" />
<glyph unicode="&#xfa;" horiz-adv-x="1026" d="M111 373v717h233v-676q0 -98 38.5 -149.5t113.5 -51.5q87 0 136.5 66t49.5 182v629h233v-1090h-225v160q-46 -97 -113 -143t-165 -46q-145 0 -223 105t-78 297zM428 1233l158 299h258l-246 -299h-170z" />
<glyph unicode="&#xfb;" horiz-adv-x="1026" d="M111 373v717h233v-676q0 -98 38.5 -149.5t113.5 -51.5q87 0 136.5 66t49.5 182v629h233v-1090h-225v160q-46 -97 -113 -143t-165 -46q-145 0 -223 105t-78 297zM217 1233l191 299h210l191 -299h-191l-106 168l-104 -168h-191z" />
<glyph unicode="&#xfc;" horiz-adv-x="1026" d="M111 373v717h233v-676q0 -98 38.5 -149.5t113.5 -51.5q87 0 136.5 66t49.5 182v629h233v-1090h-225v160q-46 -97 -113 -143t-165 -46q-145 0 -223 105t-78 297zM246 1266v235h196v-235h-196zM584 1266v235h196v-235h-196z" />
<glyph unicode="&#xfd;" d="M16 1090h263l192 -811l184 811h250l-307 -1072q-52 -183 -81.5 -263t-57.5 -117q-31 -41 -77 -58.5t-124 -17.5l-113 4v229q32 -4 50 -4q75 0 104.5 32t46.5 132zM381 1233l158 299h258l-246 -299h-170z" />
<glyph unicode="&#xfe;" horiz-adv-x="1026" d="M104 -424v1894h234v-526q51 92 111.5 133t146.5 41q169 0 272 -154t103 -407q0 -268 -103 -427t-276 -159q-91 0 -149.5 40t-104.5 134v-569h-234zM328 528q0 -152 53.5 -236.5t148.5 -84.5q92 0 145.5 91t53.5 245q0 152 -53.5 238.5t-147.5 86.5q-98 0 -149 -87 t-51 -253z" />
<glyph unicode="&#xff;" d="M16 1090h263l192 -811l184 811h250l-307 -1072q-52 -183 -81.5 -263t-57.5 -117q-31 -41 -77 -58.5t-124 -17.5l-113 4v229q32 -4 50 -4q75 0 104.5 32t46.5 132zM199 1266v235h196v-235h-196zM537 1266v235h196v-235h-196z" />
<glyph unicode="&#x152;" horiz-adv-x="1679" d="M61 727q0 363 134.5 572.5t367.5 209.5q85 0 145 -29t115 -96v86h791v-260h-561v-309h522v-260h-522v-381h561v-260h-791v102q-60 -80 -115.5 -110.5t-142.5 -30.5q-232 0 -368 207t-136 559zM307 731q0 -235 78 -376.5t207 -141.5q88 0 151.5 55.5t63.5 132.5v666 q0 85 -58.5 137.5t-150.5 52.5q-136 0 -213.5 -140t-77.5 -386z" />
<glyph unicode="&#x153;" horiz-adv-x="1585" d="M57 547q0 256 124 413.5t327 157.5q186 0 313 -164q75 94 138 129t157 35q198 0 307 -157.5t109 -444.5v-51h-612q10 -136 59.5 -199t144.5 -63q121 0 156 119h242q-52 -180 -151 -265.5t-251 -85.5q-104 0 -176 35t-137 117q-59 -80 -128 -116t-165 -36 q-207 0 -332 157.5t-125 418.5zM299 543q0 -160 55.5 -245t159.5 -85t159.5 85.5t55.5 246.5q0 160 -55 246t-158 86q-106 0 -161.5 -85t-55.5 -249zM926 653h364q-27 230 -184 230q-78 0 -121.5 -55.5t-58.5 -174.5z" />
<glyph unicode="&#x178;" horiz-adv-x="1120" d="M25 1470h297l249 -639l240 639h285l-404 -919v-551h-252v555zM301 1626v236h197v-236h-197zM639 1626v236h197v-236h-197z" />
<glyph unicode="&#x2c6;" horiz-adv-x="559" d="M-16 1233l190 299h211l190 -299h-190l-106 168l-105 -168h-190z" />
<glyph unicode="&#x2dc;" horiz-adv-x="559" d="M-29 1253q22 129 71.5 190.5t131.5 61.5q13 0 113.5 -36.5t111.5 -36.5q32 0 50.5 19t29.5 62h109q-40 -245 -180 -245q-23 0 -127.5 36.5t-124.5 36.5q-59 0 -78 -88h-107z" />
<glyph unicode="&#x2000;" horiz-adv-x="982" />
<glyph unicode="&#x2001;" horiz-adv-x="1964" />
<glyph unicode="&#x2002;" horiz-adv-x="982" />
<glyph unicode="&#x2003;" horiz-adv-x="1964" />
<glyph unicode="&#x2004;" horiz-adv-x="654" />
<glyph unicode="&#x2005;" horiz-adv-x="491" />
<glyph unicode="&#x2006;" horiz-adv-x="327" />
<glyph unicode="&#x2007;" horiz-adv-x="327" />
<glyph unicode="&#x2008;" horiz-adv-x="245" />
<glyph unicode="&#x2009;" horiz-adv-x="392" />
<glyph unicode="&#x200a;" horiz-adv-x="109" />
<glyph unicode="&#x2010;" horiz-adv-x="559" d="M45 440v267h469v-267h-469z" />
<glyph unicode="&#x2011;" horiz-adv-x="559" d="M45 440v267h469v-267h-469z" />
<glyph unicode="&#x2012;" horiz-adv-x="559" d="M45 440v267h469v-267h-469z" />
<glyph unicode="&#x2013;" d="M0 463v219h934v-219h-934z" />
<glyph unicode="&#x2014;" horiz-adv-x="1679" d="M0 463v219h1679v-219h-1679z" />
<glyph unicode="&#x2018;" horiz-adv-x="466" d="M117 930v209q0 144 52 228.5t177 121.5v-105q-68 -28 -95 -70t-28 -124h127v-260h-233z" />
<glyph unicode="&#x2019;" horiz-adv-x="466" d="M117 1210v260h233v-208q0 -143 -53 -229t-176 -122v105q68 28 95 69.5t30 124.5h-129z" />
<glyph unicode="&#x201a;" horiz-adv-x="466" d="M117 0v260h233v-209q0 -143 -52.5 -228.5t-176.5 -121.5v104q68 28 95 70t30 125h-129z" />
<glyph unicode="&#x201c;" horiz-adv-x="839" d="M106 930v209q0 145 53.5 229.5t178.5 120.5v-105q-68 -28 -95 -70t-30 -124h127v-260h-234zM500 930v209q0 144 52 228.5t177 121.5v-105q-68 -28 -95 -70t-30 -124h129v-260h-233z" />
<glyph unicode="&#x201d;" horiz-adv-x="839" d="M106 1210v260h234v-208q0 -143 -53 -229t-176 -122v105q68 28 95 70t30 124h-130zM500 1210v260h233v-208q0 -145 -54 -230t-177 -121v105q68 28 95 69.5t30 124.5h-127z" />
<glyph unicode="&#x201e;" horiz-adv-x="839" d="M106 0v260h234v-209q0 -143 -52.5 -228.5t-176.5 -121.5v104q67 28 94.5 70.5t30.5 124.5h-130zM500 0v260h233v-209q0 -144 -54 -229t-177 -121v104q68 28 95 70t30 125h-127z" />
<glyph unicode="&#x2022;" horiz-adv-x="587" d="M16 735q0 143 81.5 240.5t199.5 97.5q114 0 194 -99t80 -237q0 -141 -80.5 -240.5t-197.5 -99.5q-116 0 -196.5 98.5t-80.5 239.5z" />
<glyph unicode="&#x2026;" horiz-adv-x="1679" d="M154 0v301h252v-301h-252zM713 0v301h252v-301h-252zM1274 0v301h252v-301h-252z" />
<glyph unicode="&#x202f;" horiz-adv-x="392" />
<glyph unicode="&#x2039;" horiz-adv-x="559" d="M139 451v245l281 295v-237l-168 -181l168 -180v-237z" />
<glyph unicode="&#x203a;" horiz-adv-x="559" d="M139 156v237l168 180l-168 181v237l281 -295v-245z" />
<glyph unicode="&#x205f;" horiz-adv-x="491" />
<glyph unicode="&#x20ac;" horiz-adv-x="901" d="M0 473l59 170h105v59h-164l59 170h105v142q0 175 104 275t285 100q101 0 174 -26.5t160 -94.5l-84 -226q-112 115 -232 115q-60 0 -87 -47.5t-27 -153.5v-84h293l-58 -170h-235v-59h219l-60 -170h-159v-49q0 -62 5 -103t12.5 -65t23.5 -35.5t31 -14.5t42 -3 q62 0 120.5 22t129.5 74v-266q-75 -32 -134 -45t-134 -13q-202 0 -295.5 108t-93.5 351v39h-164z" />
<glyph unicode="&#x2122;" horiz-adv-x="1679" d="M117 1307v163h612v-163h-217v-641h-178v641h-217zM836 666v804h245l121 -563l117 563h244v-804h-168v536l-113 -536h-170l-108 534v-534h-168z" />
<glyph unicode="&#x25fc;" horiz-adv-x="1085" d="M0 0v1085h1085v-1085h-1085z" />
</font>
</defs>
</svg>
