<?xml version="1.0" standalone="no"?>
<!DOCTYPE svg PUBLIC "-//W3C//DTD SVG 1.1//EN" "http://www.w3.org/Graphics/SVG/1.1/DTD/svg11.dtd" >
<svg xmlns="http://www.w3.org/2000/svg">
<metadata></metadata>
<defs>
<font id="texgyreheroscnbold_italic" horiz-adv-x="933" >
<font-face units-per-em="2048" ascent="1624" descent="-424" />
<missing-glyph horiz-adv-x="466" />
<glyph unicode="&#xfb01;" horiz-adv-x="1026" d="M84 0l154 885h-129l36 205h129l15 88q26 160 108 235.5t224 75.5q44 0 106 -4l-41 -232h-65q-55 0 -71.5 -19.5t-31.5 -100.5l-8 -43h154l-37 -205h-154l-154 -885h-235zM616 0l191 1090h233l-190 -1090h-234zM838 1266l41 235h233l-41 -235h-233z" />
<glyph unicode="&#xfb02;" horiz-adv-x="1026" d="M84 0l154 885h-129l36 205h129l15 88q26 160 108 235.5t224 75.5q44 0 106 -4l-41 -232h-65q-55 0 -71.5 -19.5t-31.5 -100.5l-8 -43h154l-37 -205h-154l-154 -885h-235zM614 0l256 1470h236l-256 -1470h-236z" />
<glyph unicode="&#xfb03;" horiz-adv-x="1556" d="M84 0l154 885h-129l36 205h129l15 88q26 160 108 235.5t224 75.5q44 0 106 -4l-41 -232h-65q-55 0 -71.5 -19.5t-31.5 -100.5l-8 -43h295l14 88q26 160 108 235.5t224 75.5q44 0 106 -4l-40 -232h-66q-55 0 -71 -19.5t-31 -100.5l-9 -43h154l-37 -205h-153l-154 -885 h-236l154 885h-295l-154 -885h-235zM1147 0l190 1090h234l-191 -1090h-233zM1368 1266l41 235h233l-40 -235h-234z" />
<glyph unicode="&#xfb04;" horiz-adv-x="1556" d="M84 0l154 885h-129l36 205h129l15 88q26 160 108 235.5t224 75.5q44 0 106 -4l-41 -232h-65q-55 0 -71.5 -19.5t-31.5 -100.5l-8 -43h295l14 88q26 160 108 235.5t224 75.5q44 0 106 -4l-40 -232h-66q-55 0 -71 -19.5t-31 -100.5l-9 -43h154l-37 -205h-153l-154 -885 h-236l154 885h-295l-154 -885h-235zM1145 0l256 1470h235l-256 -1470h-235z" />
<glyph horiz-adv-x="0" />
<glyph horiz-adv-x="682" />
<glyph unicode=" "  horiz-adv-x="466" />
<glyph unicode="&#x09;" horiz-adv-x="466" />
<glyph unicode="&#xa0;" horiz-adv-x="466" />
<glyph unicode="!" horiz-adv-x="559" d="M96 0l51 289h244l-49 -289h-246zM227 408l54 688l65 374h258l-65 -374l-187 -688h-125z" />
<glyph unicode="&#x22;" horiz-adv-x="796" d="M262 915l96 555h166l-98 -555h-164zM563 915l99 555h163l-96 -555h-166z" />
<glyph unicode="#" d="M39 408l53 184h162l72 246h-164l53 184h164l117 408h157l-116 -408h161l119 408h158l-119 -408h164l-53 -184h-162l-72 -246h164l-53 -184h-164l-117 -408h-157l116 408h-162l-118 -408h-158l119 408h-164zM412 592h163l72 246h-164z" />
<glyph unicode="$" d="M51 270q0 54 17 170h219q-6 -58 -6 -104q0 -66 26.5 -100.5t91.5 -53.5l76 430q-163 57 -226 128.5t-63 197.5q0 105 43.5 214t114.5 181q58 60 119.5 86.5t157.5 34.5l24 133h76l-23 -133q154 -26 219.5 -103.5t65.5 -215.5q0 -45 -6 -109h-215q4 66 4 82q0 67 -24 97 t-80 32l-68 -383q127 -56 190.5 -102t89 -101.5t25.5 -144.5q0 -135 -53.5 -251t-160 -195t-247.5 -95l-35 -201h-75l34 201q-172 24 -241.5 96t-69.5 209zM410 1030q0 -60 25 -92.5t87 -54.5l62 354q-79 -9 -126.5 -65.5t-47.5 -141.5zM477 182q83 10 135 77t52 163 q0 57 -28 93.5t-91 62.5z" />
<glyph unicode="%" horiz-adv-x="1492" d="M168 911q0 157 40.5 279.5t118.5 193t181 70.5q207 0 207 -235q0 -240 -91.5 -389.5t-246.5 -149.5q-103 0 -156 58.5t-53 172.5zM279 -39l929 1493h123l-928 -1493h-124zM332 905q0 -84 65 -84q55 0 80 49q26 46 50 162t24 199q0 82 -66 82q-55 0 -79 -47 q-28 -53 -51 -165.5t-23 -195.5zM905 207q0 241 92.5 392t247.5 151q207 0 207 -236q0 -240 -91.5 -389.5t-246.5 -149.5q-103 0 -156 59t-53 173zM1069 201q0 -84 66 -84q54 0 79 49q26 46 50 161t24 199q0 82 -67 82q-36 0 -66 -38.5t-48 -99.5t-28 -131t-10 -138z" />
<glyph unicode="&#x26;" horiz-adv-x="1212" d="M88 295q0 310 313 512l29 18q-63 120 -63 234q0 169 112 290t269 121q112 0 180.5 -72.5t68.5 -191.5q0 -252 -268 -426l127 -258q66 101 102 242h209q-36 -145 -82 -238.5t-133 -203.5l162 -322h-283l-61 125q-92 -89 -175 -126.5t-187 -37.5q-146 0 -233 91t-87 243z M332 362q0 -72 38 -115.5t101 -43.5q51 0 100 24t111 78l-164 338q-86 -68 -126 -113.5t-50 -78.5t-10 -89zM586 1110q0 -56 59 -160q79 57 112.5 106t33.5 109q0 41 -22 64.5t-60 23.5q-51 0 -87 -42t-36 -101z" />
<glyph unicode="'" horiz-adv-x="399" d="M215 915l96 555h166l-96 -555h-166z" />
<glyph unicode="(" horiz-adv-x="559" d="M66 258q0 317 112.5 609t376.5 636h172q-232 -361 -331 -684.5t-99 -658.5q0 -148 20 -272.5t74 -311.5h-174q-83 201 -117 354t-34 328z" />
<glyph unicode=")" horiz-adv-x="559" d="M-104 -424q229 352 329.5 678t100.5 664q0 146 -20.5 270.5t-74.5 314.5h175q84 -206 117.5 -358t33.5 -328q0 -314 -115 -611t-374 -630h-172z" />
<glyph unicode="*" horiz-adv-x="653" d="M184 1147l66 149l158 -69l43 243h141l-41 -243l180 69l14 -149l-186 -66l80 -198l-121 -90l-82 186l-147 -186l-90 90l149 198z" />
<glyph unicode="+" horiz-adv-x="980" d="M158 424v176h286v287h177v-287h284v-176h-284v-285h-177v285h-286z" />
<glyph unicode="," horiz-adv-x="466" d="M-14 -344l18 108q78 29 117.5 81t64.5 155h-141l53 299h252l-45 -258q-58 -324 -319 -385z" />
<glyph unicode="-" horiz-adv-x="559" d="M61 440l48 267h466l-47 -267h-467z" />
<glyph unicode="." horiz-adv-x="466" d="M45 0l53 299h252l-53 -299h-252z" />
<glyph unicode="/" horiz-adv-x="466" d="M-123 -39l649 1548h197l-649 -1548h-197z" />
<glyph unicode="0" d="M84 365q0 241 70.5 514.5t164.5 396.5q135 178 340 178q316 0 316 -399q0 -253 -68.5 -519.5t-165.5 -394.5q-135 -180 -340 -180q-84 0 -146.5 30.5t-99 86t-54 127t-17.5 160.5zM319 365q0 -175 121 -175q97 0 154 111q50 98 98.5 347.5t48.5 406.5q0 170 -120 170 q-95 0 -148 -99.5t-100 -349.5q-54 -285 -54 -411z" />
<glyph unicode="1" d="M229 1001l35 201h33q271 0 338 252h192l-254 -1454h-235l176 1001h-285z" />
<glyph unicode="2" d="M-18 0q31 152 83.5 252.5t146 193t280.5 234.5q134 102 190.5 189t56.5 186q0 74 -36.5 115.5t-100.5 41.5q-88 0 -137 -62t-78 -210h-227q107 514 481 514q155 0 246.5 -94.5t91.5 -255.5q0 -115 -41 -224t-115 -196q-43 -49 -78 -78t-206 -157q-112 -85 -150 -119.5 t-65 -75.5h518l-45 -254h-815z" />
<glyph unicode="3" d="M49 293q0 68 14 153h230q-10 -54 -10 -90q0 -78 35.5 -122t101.5 -44q91 0 157 86.5t66 206.5q0 83 -53 117.5t-182 36.5l36 205h37q116 0 177 65t61 178q0 68 -31.5 104t-91.5 36q-158 0 -201 -238h-217q45 229 166 348t301 119q147 0 231.5 -82.5t84.5 -226.5 q0 -260 -205 -375q133 -68 133 -244q0 -148 -67.5 -278.5t-184 -208.5t-250.5 -78q-157 0 -247.5 89t-90.5 243z" />
<glyph unicode="4" d="M41 322l43 247l592 885h266l-158 -909h131l-38 -223h-132l-57 -322h-233l55 322h-469zM252 545h297l115 633z" />
<glyph unicode="5" d="M47 293q0 37 6 96h236q-2 -18 -2 -43q0 -73 34.5 -114.5t96.5 -41.5q96 0 164.5 104t68.5 249q0 88 -36 134t-105 46q-101 0 -170 -105l-209 13l221 799h656l-43 -242h-484l-98 -316q61 43 111 61.5t110 18.5q135 0 216 -95t81 -253q0 -162 -65.5 -308.5t-188 -240.5 t-272.5 -94q-147 0 -237.5 91.5t-90.5 240.5z" />
<glyph unicode="6" d="M82 373q0 191 49 417t121 365q73 144 183 221.5t239 77.5q303 0 303 -317v-52h-234l2 25q0 54 -29.5 84.5t-82.5 30.5q-94 0 -156 -95t-115 -317q55 69 112.5 98t135.5 29q137 0 216 -92t79 -252q0 -117 -38.5 -232t-103.5 -204t-158.5 -144t-196.5 -55 q-157 0 -241.5 107t-84.5 305zM301 383q0 -88 39 -140.5t104 -52.5q90 0 156 105t66 248q0 77 -37.5 122.5t-100.5 45.5q-96 0 -161.5 -95t-65.5 -233z" />
<glyph unicode="7" d="M147 0q148 639 631 1176h-594l49 254h842l-39 -222q-249 -273 -407 -569t-240 -639h-242z" />
<glyph unicode="8" d="M55 305q0 323 254 467q-56 42 -79 88.5t-23 116.5q0 198 131.5 337.5t318.5 139.5q145 0 230.5 -82.5t85.5 -220.5q0 -120 -50 -214.5t-145 -154.5q71 -54 99 -107t28 -136q0 -89 -25 -175.5t-71.5 -158.5t-108 -127t-139.5 -86t-162 -31q-163 0 -253.5 90.5t-90.5 253.5 zM303 354q0 -77 36.5 -120.5t100.5 -43.5q88 0 151.5 86t63.5 205q0 78 -36.5 122t-100.5 44q-91 0 -153 -84.5t-62 -208.5zM434 1006q0 -63 34 -102.5t89 -39.5q76 0 129 66t53 160q0 63 -30.5 99t-85.5 36q-78 0 -133.5 -63.5t-55.5 -155.5z" />
<glyph unicode="9" d="M70 276q0 37 2 60h233q0 -76 25.5 -111t83.5 -35q91 0 158 94.5t114 321.5q-54 -69 -112 -99t-140 -30q-134 0 -212.5 92t-78.5 250q0 125 37.5 240.5t102.5 203t160 139.5t204 52q157 0 240.5 -108t83.5 -310q0 -231 -69.5 -486.5t-166.5 -383.5q-156 -205 -364 -205 q-135 0 -218 87t-83 228zM385 868q0 -78 34.5 -119.5t98.5 -41.5q99 0 164.5 95.5t65.5 239.5q0 85 -36.5 131t-103.5 46q-98 0 -160.5 -98t-62.5 -253z" />
<glyph unicode=":" horiz-adv-x="559" d="M92 0l51 299h254l-53 -299h-252zM223 750l53 299h252l-51 -299h-254z" />
<glyph unicode=";" horiz-adv-x="559" d="M33 -344l18 108q78 29 117.5 81t64.5 155h-141l53 299h252l-45 -258q-33 -172 -123.5 -273t-195.5 -112zM223 750l53 299h252l-51 -299h-254z" />
<glyph unicode="&#x3c;" horiz-adv-x="980" d="M209 453v118l579 652v-267l-395 -444l395 -444v-267z" />
<glyph unicode="=" horiz-adv-x="980" d="M158 240v176h747v-176h-747zM158 608v176h747v-176h-747z" />
<glyph unicode="&#x3e;" horiz-adv-x="980" d="M209 68l395 444l-395 444v267l579 -652v-118l-579 -652v267z" />
<glyph unicode="?" horiz-adv-x="1026" d="M215 1010q51 238 179 358.5t311 120.5q160 0 260 -87.5t100 -244.5q0 -149 -60.5 -253.5t-218.5 -227.5q-72 -56 -99 -102.5t-46 -147.5h-221q28 164 73.5 242.5t168.5 173.5q78 60 111.5 121t33.5 139q0 69 -35.5 107t-101.5 38q-75 0 -132 -57.5t-79 -147.5l-6 -32 h-238zM338 0l51 289h244l-49 -289h-246z" />
<glyph unicode="@" horiz-adv-x="1638" d="M250 573q0 179 67 351t176 300t257 206.5t301 78.5q212 0 350.5 -144t138.5 -364q0 -130 -49.5 -262.5t-127 -232t-177.5 -162.5t-195 -63q-31 0 -52 23t-21 58q0 9 4 33q-111 -114 -203 -114q-91 0 -152 79.5t-61 196.5q0 98 39.5 203.5t102 189.5t147 138.5t168.5 54.5 q68 0 110 -31.5t68 -101.5l41 108h147l-188 -522q-29 -83 -29 -104q0 -25 21 -25q63 0 124.5 70.5t100.5 184t39 230.5q0 181 -101.5 287.5t-273.5 106.5q-159 0 -298.5 -104t-222.5 -280.5t-83 -377.5q0 -209 110.5 -334t296.5 -125q102 0 193.5 39.5t189.5 126.5h150 q-143 -179 -279.5 -254.5t-292.5 -75.5q-236 0 -386 171t-150 441zM694 614q0 -60 28 -94.5t77 -34.5q59 0 118.5 49t97.5 126.5t38 154.5q0 57 -30 93t-77 36q-59 0 -118 -49t-96.5 -126.5t-37.5 -154.5z" />
<glyph unicode="A" horiz-adv-x="1212" d="M-29 0l688 1470h291l168 -1470h-274l-25 303h-444l-137 -303h-267zM485 557h308l-48 588z" />
<glyph unicode="B" horiz-adv-x="1212" d="M66 0l256 1470h587q149 0 230.5 -76.5t81.5 -217.5q0 -266 -207 -383q73 -43 104 -99.5t31 -148.5q0 -106 -38 -208.5t-107 -178.5q-82 -91 -173 -124.5t-256 -33.5h-509zM352 254h310q107 0 170 74t63 182q0 64 -41 100.5t-113 36.5h-321zM463 895h297q95 0 153 56.5 t58 150.5q0 59 -39.5 87t-122.5 28h-289z" />
<glyph unicode="C" horiz-adv-x="1212" d="M119 494q0 277 93 509.5t258 369t366 136.5q192 0 310 -122.5t118 -323.5q0 -41 -2 -74h-254q-6 130 -57 192t-156 62q-118 0 -213.5 -96t-148 -255t-52.5 -347q0 -152 59 -235t168 -83q105 0 182 65.5t134 211.5h252q-198 -543 -617 -543q-208 0 -324 139t-116 394z" />
<glyph unicode="D" horiz-adv-x="1212" d="M66 0l256 1470h534q188 0 287.5 -122t99.5 -353q0 -189 -49 -369t-133.5 -318.5t-208.5 -223t-264 -84.5h-522zM356 254h246q109 0 197.5 102t135 259.5t46.5 330.5q0 138 -52 204.5t-161 66.5h-244z" />
<glyph unicode="E" horiz-adv-x="1120" d="M66 0l256 1470h886l-45 -260h-641l-53 -309h588l-45 -260h-588l-66 -381h668l-45 -260h-915z" />
<glyph unicode="F" horiz-adv-x="1026" d="M66 0l256 1470h858l-45 -260h-607l-57 -331h530l-45 -261h-530l-109 -618h-251z" />
<glyph unicode="G" horiz-adv-x="1306" d="M121 510q0 196 56 378t153 319t237 219.5t299 82.5q201 0 323 -119t122 -315q0 -34 -2 -61h-252v12q0 95 -66 162t-160 67q-125 0 -229 -96.5t-162.5 -258.5t-58.5 -351q0 -157 70 -242.5t198 -85.5q115 0 203.5 76.5t155.5 247.5h-281l43 248h506l-139 -793h-168l6 184 q-109 -124 -200.5 -173.5t-213.5 -49.5q-203 0 -321.5 148t-118.5 401z" />
<glyph unicode="H" horiz-adv-x="1212" d="M57 0l256 1470h252l-96 -557h471l96 557h252l-256 -1470h-252l115 659h-471l-115 -659h-252z" />
<glyph unicode="I" horiz-adv-x="466" d="M45 0l258 1470h252l-258 -1470h-252z" />
<glyph unicode="J" d="M39 274q0 90 33 281h235q-24 -156 -24 -215q0 -68 27 -98.5t87 -30.5q76 0 115 47.5t61 167.5l183 1044h252l-183 -1044q-80 -463 -460 -463q-166 0 -246 76.5t-80 234.5z" />
<glyph unicode="K" horiz-adv-x="1212" d="M84 0l256 1470h252l-105 -598l566 598h325l-598 -602l371 -868h-326l-260 645l-143 -147l-86 -498h-252z" />
<glyph unicode="L" horiz-adv-x="1026" d="M66 0l256 1470h251l-208 -1204h600l-47 -266h-852z" />
<glyph unicode="M" horiz-adv-x="1398" d="M55 0l256 1470h383v-1167l420 1167h365l-256 -1470h-236l217 1247l-444 -1247h-252v1247l-217 -1247h-236z" />
<glyph unicode="N" horiz-adv-x="1212" d="M55 0l256 1470h264l304 -1032l178 1032h235l-256 -1470h-252l-311 1055l-182 -1055h-236z" />
<glyph unicode="O" horiz-adv-x="1306" d="M119 502q0 167 36 321t103 278t157 216t204 142t239 50q98 0 181.5 -34t146.5 -99.5t99 -169t36 -235.5q0 -212 -56 -399t-153.5 -321t-234.5 -212t-293 -78q-215 0 -340 145.5t-125 395.5zM377 555q0 -157 68 -245.5t188 -88.5q119 0 218.5 91.5t156.5 251t57 351.5 q0 155 -68 244.5t-186 89.5q-124 0 -225 -97.5t-155 -255.5t-54 -341z" />
<glyph unicode="P" horiz-adv-x="1120" d="M66 0l256 1470h550q145 0 225.5 -90.5t80.5 -251.5q0 -153 -61.5 -290t-173 -222.5t-245.5 -85.5h-288l-93 -530h-251zM455 784h233q111 0 172.5 80t61.5 211q0 73 -46.5 107.5t-146.5 34.5h-199z" />
<glyph unicode="Q" horiz-adv-x="1306" d="M119 500q0 212 56.5 399t154 321t235 211.5t293.5 77.5q208 0 335.5 -141t127.5 -399q0 -210 -59.5 -405.5t-178.5 -352.5l105 -152l-162 -165l-115 165q-89 -52 -166 -75t-163 -23q-207 0 -335 140t-128 399zM377 555q0 -157 67 -245.5t187 -88.5q66 0 143 39l-98 139 l160 166l102 -145q125 220 125 491q0 160 -67 249t-187 89q-121 0 -221 -94t-155.5 -253t-55.5 -347z" />
<glyph unicode="R" horiz-adv-x="1212" d="M66 0l256 1470h610q149 0 231 -85t82 -240q0 -143 -67.5 -264.5t-186.5 -175.5q60 -37 83.5 -77.5t23.5 -107.5q0 -53 -6 -101t-33 -198q-12 -70 -12 -117q0 -25 7 -39t27 -26l-6 -39h-280l-2 55q-1 37 23.5 205.5t23.5 190.5q0 69 -37.5 96.5t-130.5 27.5h-260 l-101 -575h-245zM457 823h295q119 0 176 69t57 183q0 69 -37.5 105.5t-109.5 36.5h-314z" />
<glyph unicode="S" horiz-adv-x="1120" d="M74 332q0 39 10 121h242q-4 -46 -4 -56q0 -88 58 -135t165 -47q127 0 203.5 60.5t76.5 160.5q0 54 -40.5 87t-147.5 65l-123 37q-101 30 -163.5 60t-96.5 70t-45.5 83t-11.5 110q0 156 67 283.5t192.5 202.5t284.5 75q193 0 297.5 -102t104.5 -268q0 -48 -8 -105h-240v43 q0 86 -53 132t-152 46q-110 0 -179 -59t-69 -154q0 -46 23.5 -71.5t81.5 -44.5l278 -88q135 -43 194.5 -113.5t59.5 -187.5q0 -247 -163 -411.5t-418 -164.5q-199 0 -311.5 100.5t-112.5 270.5z" />
<glyph unicode="T" horiz-adv-x="1026" d="M172 1210l45 260h981l-45 -260h-365l-210 -1210h-252l211 1210h-365z" />
<glyph unicode="U" horiz-adv-x="1212" d="M135 346q0 76 12 150l170 974h256l-165 -954q-9 -46 -9 -90q0 -101 46.5 -153t136.5 -52q114 0 184.5 71.5t95.5 209.5l170 968h256l-166 -956q-47 -269 -196 -411t-385 -142q-195 0 -300.5 100t-105.5 285z" />
<glyph unicode="V" horiz-adv-x="1120" d="M227 1470h334v-1122l459 1122h262l-666 -1470h-239z" />
<glyph unicode="W" horiz-adv-x="1585" d="M221 0v1470h273v-800v-287l358 1087h260v-1087l387 1087h256l-596 -1470h-227v1157l-391 -1157h-320z" />
<glyph unicode="X" horiz-adv-x="1120" d="M-39 0l520 752l-241 718h301l131 -475l303 475h291l-492 -706l260 -764h-307l-141 502l-330 -502h-295z" />
<glyph unicode="Y" horiz-adv-x="1120" d="M219 1470h297l139 -639l351 639h286l-565 -919l-94 -551h-254l98 555z" />
<glyph unicode="Z" horiz-adv-x="1026" d="M-20 0l45 260l790 950h-608l45 260h924l-43 -241l-801 -969h637l-47 -260h-942z" />
<glyph unicode="[" horiz-adv-x="559" d="M-27 -401l328 1880h414l-35 -197h-207l-260 -1487h209l-35 -196h-414z" />
<glyph unicode="\" horiz-adv-x="466" d="M145 1509h197l113 -1548h-197z" />
<glyph unicode="]" horiz-adv-x="559" d="M-90 -401l35 196h207l258 1487h-207l35 197h411l-327 -1880h-412z" />
<glyph unicode="^" horiz-adv-x="980" d="M158 662l436 768h168l168 -768h-185l-108 538l-297 -538h-182z" />
<glyph unicode="_" d="M-106 -256l18 102h934l-19 -102h-933z" />
<glyph unicode="`" horiz-adv-x="559" d="M154 1532h258l106 -299h-170z" />
<glyph unicode="a" d="M31 207q0 167 89.5 285.5t237.5 144.5l220 39q100 18 100 117q0 96 -127 96q-74 0 -114.5 -34.5t-65.5 -117.5h-226q60 208 164 294.5t291 86.5q152 0 235 -64.5t83 -183.5q0 -27 -7 -67l-102 -590q-10 -65 -10 -100q0 -53 32 -70l-8 -43h-254q-2 33 -2 59q0 31 4 70 q-85 -87 -155 -122.5t-156 -35.5q-107 0 -168 63t-61 173zM272 272q0 -44 25 -70t68 -26q86 0 158 63t87 152l25 139q-27 -21 -62 -33t-108 -26q-101 -22 -147 -69t-46 -130z" />
<glyph unicode="b" horiz-adv-x="1026" d="M41 0l256 1470h235l-92 -528q70 95 137.5 135.5t153.5 40.5q135 0 213 -103t78 -282q0 -194 -63 -368.5t-178 -284t-253 -109.5q-91 0 -146.5 41.5t-84.5 130.5l-27 -143h-229zM348 416q0 -98 42.5 -153.5t117.5 -55.5q73 0 134.5 65t95.5 169.5t34 220.5 q0 101 -39.5 154.5t-114.5 53.5q-80 0 -143.5 -68t-95 -170.5t-31.5 -215.5z" />
<glyph unicode="c" d="M72 348q0 208 66 382.5t191 281t283 106.5q151 0 241.5 -89.5t90.5 -240.5q0 -22 -4 -88h-238q-2 93 -30 135t-90 42q-78 0 -139.5 -68.5t-93.5 -179.5t-32 -242q0 -86 35.5 -133t100.5 -47q66 0 119 52t75 138h240q-63 -206 -188 -316t-296 -110q-161 0 -246 97t-85 280 z" />
<glyph unicode="d" horiz-adv-x="1026" d="M76 369q0 205 65 377.5t177 272t245 99.5q86 0 139.5 -41t90.5 -135l92 528h235l-256 -1470h-231l26 143q-61 -89 -132 -130.5t-162 -41.5q-137 0 -213 104.5t-76 293.5zM322 428q0 -107 37.5 -164t109.5 -57q117 0 195.5 129t78.5 321q0 213 -153 213 q-79 0 -141.5 -65.5t-94.5 -166t-32 -210.5z" />
<glyph unicode="e" d="M57 367q0 211 70 383t193.5 270t275.5 98q164 0 251 -102.5t87 -296.5q0 -72 -19 -201l-8 -51h-612q-6 -47 -6 -80q0 -89 43 -137.5t121 -48.5q120 0 176 118h241q-82 -182 -196 -265t-264 -83q-172 0 -262.5 101.5t-90.5 294.5zM334 653h364l2 54v11q0 73 -39 117 q-42 48 -108 48q-78 0 -131 -55t-88 -175z" />
<glyph unicode="f" horiz-adv-x="559" d="M84 0l154 885h-129l36 205h129l15 88q26 160 108 235.5t224 75.5q44 0 106 -4l-41 -232h-65q-55 0 -71.5 -19.5t-31.5 -100.5l-8 -43h154l-37 -205h-154l-154 -885h-235z" />
<glyph unicode="g" horiz-adv-x="1026" d="M2 -172q0 35 2 55h256q0 -61 31.5 -85.5t105.5 -24.5q101 0 158 59.5t80 190.5l24 141q-63 -95 -123 -132.5t-149 -37.5q-143 0 -223 101t-80 282q0 202 65.5 372.5t178 269.5t245.5 99q94 0 148 -46.5t80 -149.5l30 168h226l-180 -1033q-24 -138 -70 -236t-114 -155.5 t-150.5 -83.5t-188.5 -26q-166 0 -259 71.5t-93 200.5zM330 434q0 -95 38 -146.5t107 -51.5q77 0 138 60t92.5 154.5t31.5 202.5q0 101 -41 159t-112 58q-103 0 -178.5 -129t-75.5 -307z" />
<glyph unicode="h" horiz-adv-x="1026" d="M47 0l256 1470h236l-93 -530q103 178 297 178q117 0 184.5 -73t67.5 -199q0 -48 -8 -92l-131 -754h-235l114 662q10 62 10 92q0 59 -32 91t-90 32q-87 0 -149.5 -67.5t-82.5 -184.5l-108 -625h-236z" />
<glyph unicode="i" horiz-adv-x="466" d="M55 0l191 1090h233l-190 -1090h-234zM276 1266l41 235h234l-41 -235h-234z" />
<glyph unicode="j" horiz-adv-x="466" d="M-133 -438l41 229h41q37 0 57 23t29 77l209 1199h235l-209 -1205q-32 -183 -106.5 -253t-237.5 -70h-59zM276 1266l41 235h234l-41 -235h-234z" />
<glyph unicode="k" d="M55 0l256 1470h236l-139 -794l366 414h289l-389 -422l209 -668h-283l-131 467l-119 -123l-59 -344h-236z" />
<glyph unicode="l" horiz-adv-x="466" d="M55 0l256 1470h236l-256 -1470h-236z" />
<glyph unicode="m" horiz-adv-x="1492" d="M45 0l191 1090h225l-29 -166q66 105 134 149.5t161 44.5q86 0 131.5 -37t83.5 -137q71 95 133 134.5t144 39.5q113 0 180 -74t67 -198q0 -48 -8 -92l-131 -754h-235l114 662q8 58 8 83q0 132 -102 132q-75 0 -125 -58t-69 -166l-115 -653h-236l115 655q12 65 12 109 q0 113 -114 113q-147 0 -185 -213l-114 -664h-236z" />
<glyph unicode="n" horiz-adv-x="1026" d="M47 0l191 1090h225l-29 -166q71 104 141 149t164 45q120 0 188 -72t68 -200q0 -48 -8 -92l-131 -754h-235l114 662q10 62 10 92q0 59 -32 91t-90 32q-87 0 -149.5 -67.5t-82.5 -184.5l-108 -625h-236z" />
<glyph unicode="o" horiz-adv-x="1026" d="M76 389q0 152 44.5 287.5t120 232t181.5 153t225 56.5q172 0 271.5 -112t99.5 -306q0 -200 -75 -367.5t-207 -264.5t-290 -97q-172 0 -271 112t-99 306zM319 428q0 -215 170 -215q85 0 150.5 64.5t99 166.5t33.5 220q0 213 -170 213q-85 0 -151 -66t-99 -167t-33 -216z " />
<glyph unicode="p" horiz-adv-x="1026" d="M-31 -424l264 1514h226l-29 -164q73 106 141 149t160 43q135 0 213 -102.5t78 -282.5q0 -195 -63 -369.5t-178.5 -283.5t-254.5 -109q-90 0 -141 40t-82 134l-98 -569h-236zM350 414q0 -98 41.5 -152.5t116.5 -54.5q73 0 135 66t95.5 169.5t33.5 216.5q0 103 -39.5 157 t-114.5 54q-63 0 -115.5 -42t-85 -109.5t-50 -146.5t-17.5 -158z" />
<glyph unicode="q" horiz-adv-x="1026" d="M74 367q0 140 39 276t105 241t161 169.5t199 64.5q89 0 139 -44t84 -152l28 168h226l-264 -1514h-236l100 565q-62 -91 -128 -130.5t-158 -39.5q-140 0 -217.5 104.5t-77.5 291.5zM317 403q0 -92 40.5 -141t115.5 -49q113 0 189.5 127.5t76.5 316.5q0 98 -41.5 155.5 t-113.5 57.5q-78 0 -141 -70.5t-94.5 -176t-31.5 -220.5z" />
<glyph unicode="r" horiz-adv-x="653" d="M45 0l191 1090h225l-35 -195q82 129 142.5 176t146.5 47q3 0 8.5 -0.5t16 -1.5t20.5 -2l-51 -291q-23 4 -60 4q-114 0 -180.5 -64t-89.5 -196l-98 -567h-236z" />
<glyph unicode="s" d="M45 264q0 22 4 84h242q-2 -16 -2 -41q0 -57 43 -88t121 -31t128 35.5t50 91.5q0 72 -176 107q-310 58 -310 264q0 192 127.5 312t315.5 120q332 0 332 -291q0 -40 -2 -69h-232v37q0 106 -137 106q-72 0 -116 -32.5t-44 -86.5q0 -69 174 -104q161 -32 238.5 -97.5 t77.5 -170.5q0 -188 -130.5 -313.5t-338.5 -125.5q-170 0 -267.5 78t-97.5 215z" />
<glyph unicode="t" horiz-adv-x="559" d="M106 139q0 41 9 84l114 662h-120l34 205h123l51 294h236l-51 -294h145l-35 -205h-147l-103 -592q-6 -27 -6 -47q0 -22 20 -31.5t66 -9.5q2 0 52 4l-39 -217l-142 -4q-107 0 -157 36.5t-50 114.5z" />
<glyph unicode="u" horiz-adv-x="1026" d="M102 246q0 68 11 127l127 717h235l-119 -676q-6 -34 -6 -70q0 -131 121 -131q86 0 146.5 66t80.5 182l111 629h235l-190 -1090h-225l28 160q-69 -100 -142 -144.5t-169 -44.5q-117 0 -180.5 71.5t-63.5 203.5z" />
<glyph unicode="v" d="M150 1090h307v-811l334 811h249l-512 -1090h-247z" />
<glyph unicode="w" horiz-adv-x="1306" d="M145 0v1090h254v-793l265 793h237v-793l277 793h241l-446 -1090h-242v805l-282 -805h-304z" />
<glyph unicode="x" d="M-37 0l402 555l-201 535h287l96 -318l203 318h276l-387 -535l207 -555h-291l-96 328l-211 -328h-285z" />
<glyph unicode="y" d="M8 -434l41 229q28 -4 49 -4q74 0 109 32.5t69 131.5l-131 1135h263l51 -811l325 811h250l-495 -1072q-54 -117 -85.5 -181.5t-67 -123t-57.5 -82.5t-57.5 -43t-67 -22.5t-85.5 -3.5z" />
<glyph unicode="z" horiz-adv-x="839" d="M-29 0l39 223l570 637h-426l39 230h725l-41 -236l-560 -618h469l-43 -236h-772z" />
<glyph unicode="{" horiz-adv-x="653" d="M96 444l33 189q73 3 122.5 45t61.5 110l72 410q22 120 103 200.5t182 80.5h139l-31 -181h-76q-51 0 -78.5 -31.5t-39.5 -103.5l-70 -401q-20 -91 -87 -152.5t-153 -70.5q84 -17 125 -67t41 -124q0 -9 -4 -33l-69 -401q-7 -40 -7 -57q0 -78 76 -78h76l-31 -180h-139 q-85 0 -138.5 60t-53.5 155q0 30 6 65l71 410q4 24 4 33q0 54 -34.5 86t-100.5 36z" />
<glyph unicode="|" horiz-adv-x="471" d="M188 -401v1880h177v-1880h-177z" />
<glyph unicode="}" horiz-adv-x="653" d="M-90 -401l31 180h75q49 0 77 32t40 103l70 401q22 91 87.5 153t151.5 71q-163 33 -163 190q0 23 2 33l69 401q6 30 6 58q0 77 -75 77h-76l33 181h137q85 0 138.5 -60t53.5 -155q0 -32 -6 -66l-72 -410q-2 -12 -2 -32q0 -55 34.5 -86.5t99.5 -36.5l-33 -189 q-73 -3 -123 -45t-62 -110l-71 -410q-22 -120 -102.5 -200t-180.5 -80h-139z" />
<glyph unicode="~" horiz-adv-x="980" d="M131 496q69 105 127 148.5t127 43.5q35 0 151 -52t158 -52q39 0 66 15.5t61 57.5l86 -110q-70 -105 -126.5 -149t-125.5 -44q-37 0 -153 52.5t-158 52.5q-40 0 -66.5 -16t-60.5 -60z" />
<glyph unicode="&#xa1;" horiz-adv-x="559" d="M23 -381l65 375l186 688h125l-53 -688l-65 -375h-258zM236 801l49 289h245l-51 -289h-243z" />
<glyph unicode="&#xa2;" d="M72 344q0 158 39.5 299t109.5 246.5t173 167t224 61.5q36 0 76 -6l70 174h88l-82 -201q94 -50 134 -124t40 -175q0 -20 -4 -86h-238q0 100 -32 140l-254 -625q13 -8 37 -8q66 0 119 52t75 138h240q-63 -207 -187.5 -316.5t-296.5 -109.5q-47 0 -84 9l-90 -222h-86l99 246 q-95 56 -132.5 140t-37.5 200zM317 393q0 -74 31 -129l250 613h-20q-76 0 -137 -69.5t-92.5 -179.5t-31.5 -235z" />
<glyph unicode="&#xa3;" d="M23 176q104 63 173.5 159t69.5 208q0 60 -12 114h-154l21 123h98q-29 140 -29 195q0 133 65 247t175 181t238 67q155 0 245.5 -90t90.5 -245q0 -37 -11 -138h-221q2 31 2 76q0 168 -139 168q-85 0 -146 -66.5t-61 -160.5q0 -40 37 -234h240l-21 -123h-201 q-4 -150 -57 -245t-195 -211q80 34 125.5 46.5t89.5 12.5q35 0 110.5 -25.5t88.5 -25.5q70 0 182 74l29 -224q-143 -92 -266 -92q-80 0 -199 53q-66 29 -115 29q-33 0 -65.5 -12t-132.5 -60z" />
<glyph unicode="&#xa4;" d="M123 545q0 104 57 200l-26 27l122 125l29 -29q89 58 199 58q112 0 201 -58l26 29l125 -125l-27 -27q56 -94 56 -200q0 -107 -56 -201l27 -27l-125 -124l-26 28q-88 -57 -201 -57q-111 0 -199 57l-29 -28l-122 124l26 27q-57 96 -57 201zM299 545q0 -85 60 -145t145 -60 q86 0 145.5 60t59.5 145t-59.5 145t-145.5 60q-85 0 -145 -60t-60 -145z" />
<glyph unicode="&#xa5;" d="M39 430l20 123h342l-41 154h-272l21 122h219l-156 601h252l137 -603l338 603h238l-357 -601h226l-23 -122h-276l-91 -154h340l-20 -123h-342l-76 -430h-213l74 430h-340z" />
<glyph unicode="&#xa6;" horiz-adv-x="471" d="M188 350h177v-751h-177v751zM188 727v752h177v-752h-177z" />
<glyph unicode="&#xa7;" d="M41 -72q0 26 6 78h221q-2 -14 -2 -39q0 -60 31 -93.5t88 -33.5q61 0 106.5 51.5t45.5 120.5q0 32 -17.5 57t-60.5 56l-230 160q-73 51 -104 105t-31 132q0 120 49.5 205t163.5 158q-53 77 -53 170q0 114 56.5 214.5t151.5 160t204 59.5q129 0 203.5 -73t74.5 -199 q0 -41 -6 -103h-213q2 16 2 43q0 54 -27.5 84.5t-76.5 30.5q-60 0 -103 -42t-43 -100q0 -48 47 -81l244 -166q78 -54 115 -115t37 -139q0 -104 -58.5 -201t-156.5 -154q63 -85 63 -194q0 -188 -129.5 -322.5t-310.5 -134.5q-132 0 -209.5 82t-77.5 223zM307 639 q0 -57 60 -100l233 -172q96 66 96 153q0 61 -73 113l-220 151q-41 -20 -68.5 -61t-27.5 -84z" />
<glyph unicode="&#xa8;" horiz-adv-x="559" d="M172 1266l41 235h197l-41 -235h-197zM510 1266l41 235h197l-41 -235h-197z" />
<glyph unicode="&#xa9;" horiz-adv-x="1236" d="M82 674q0 186 71 348t205 263t301 101q126 0 235.5 -59t183.5 -157.5t116.5 -227.5t42.5 -268t-42.5 -268t-116.5 -227.5t-183.5 -158t-235.5 -59.5q-167 0 -301 101t-205 263.5t-71 348.5zM197 674q0 -156 55 -291.5t162.5 -221t244.5 -85.5q104 0 192 50t146.5 133 t91.5 191t33 224t-33 224t-91.5 191t-146.5 133t-192 50q-137 0 -244.5 -85.5t-162.5 -221t-55 -291.5zM338 553q-2 141 48.5 259.5t142.5 187.5t204 69q109 0 178 -63.5t70 -167.5q0 -29 -2 -56h-166q-3 65 -27 95t-77 30q-90 0 -145.5 -94.5t-53.5 -228.5q2 -68 31 -106 t82 -38t89 32.5t64 105.5h168q-107 -297 -352 -297q-118 0 -185.5 70.5t-68.5 201.5z" />
<glyph unicode="&#xaa;" horiz-adv-x="620" d="M92 565l29 164h504l-29 -164h-504zM147 967q0 98 59.5 170.5t153.5 87.5l142 22q33 4 48 19t15 43q0 55 -82 55q-50 0 -75.5 -18.5t-40.5 -65.5h-148q37 123 104.5 176t188.5 53q99 0 153 -39.5t54 -111.5q0 -15 -4 -39l-62 -354q-6 -34 -6 -56q0 -36 25 -45l-4 -26h-166 q-2 16 -2 34q0 20 2 43q-54 -52 -99 -73t-102 -21q-71 0 -112.5 39.5t-41.5 106.5zM309 1004q0 -26 16 -42t44 -16q56 0 101 37.5t54 91.5l15 82q-24 -16 -68 -28.5t-77 -20.5t-59 -34t-26 -70z" />
<glyph unicode="&#xab;" d="M166 451l43 245l332 295l-43 -237l-199 -181l137 -180l-41 -237zM522 451l43 245l332 295l-41 -237l-199 -181l136 -180l-41 -237z" />
<glyph unicode="&#xac;" horiz-adv-x="980" d="M158 608v176h747v-456h-176v280h-571z" />
<glyph unicode="&#xad;" horiz-adv-x="559" d="M61 440l48 267h466l-47 -267h-467z" />
<glyph unicode="&#xae;" horiz-adv-x="1236" d="M82 674q0 186 71 348t205 263t301 101q126 0 235.5 -59t183.5 -157.5t116.5 -227.5t42.5 -268t-42.5 -268t-116.5 -227.5t-183.5 -158t-235.5 -59.5q-167 0 -301 101t-205 263.5t-71 348.5zM197 674q0 -156 55 -291.5t162.5 -221t244.5 -85.5q104 0 192 50t146.5 133 t91.5 191t33 224t-33 224t-91.5 191t-146.5 133t-192 50q-137 0 -244.5 -85.5t-162.5 -221t-55 -291.5zM330 299l129 752h344q88 0 136 -45t50 -127q0 -69 -30.5 -128t-86.5 -92q41 -30 41 -88q2 -33 -18 -149q-4 -20 -4 -53q0 -17 20 -25l-8 -45h-178l-2 39 q-1 20 10.5 102.5t11.5 91.5q-1 28 -19 39t-60 11h-125l-49 -283h-162zM569 733h144q54 0 80 29t24 76q0 57 -67 57h-154z" />
<glyph unicode="&#xaf;" horiz-adv-x="559" d="M156 1307l26 151h580l-27 -151h-579z" />
<glyph unicode="&#xb0;" horiz-adv-x="671" d="M231 1104q0 136 91.5 245t205.5 109q85 0 140 -65.5t55 -165.5q0 -137 -91 -246t-206 -109q-85 0 -140 66t-55 166zM328 1126q0 -60 33 -99.5t85 -39.5q69 0 125 66t56 149q0 61 -34 101t-85 40q-69 0 -124.5 -66.5t-55.5 -150.5z" />
<glyph unicode="&#xb1;" horiz-adv-x="980" d="M158 0v176h747v-176h-747zM158 600v176h286v287h177v-287h284v-176h-284v-266h-177v266h-286z" />
<glyph unicode="&#xb2;" horiz-adv-x="559" d="M55 580q29 132 92 212t226 195q159 113 159 227q0 45 -24 74t-62 29q-54 0 -87 -41.5t-50 -132.5h-147q33 169 112.5 252.5t198.5 83.5q99 0 159 -65t60 -173q0 -144 -94 -256q-8 -10 -13.5 -16.5t-15 -15t-14 -12.5t-20.5 -15.5t-24.5 -17t-36 -24.5t-46.5 -32 q-93 -67 -127 -104h313l-30 -168h-529z" />
<glyph unicode="&#xb3;" horiz-adv-x="559" d="M92 776q0 42 6 94h150q-4 -36 -4 -45q0 -57 24 -86.5t68 -29.5q58 0 95.5 51t37.5 131q0 50 -32.5 70t-114.5 20l22 131h25q145 0 145 137q0 76 -76 76q-103 0 -127 -127h-143q31 138 107.5 209.5t193.5 71.5q97 0 153 -50.5t56 -138.5q0 -160 -131 -225q90 -40 90 -152 q0 -148 -96.5 -253t-231.5 -105q-101 0 -159 59t-58 162z" />
<glyph unicode="&#xb4;" horiz-adv-x="559" d="M348 1233l211 299h258l-299 -299h-170z" />
<glyph unicode="&#xb5;" horiz-adv-x="1026" d="M-25 -424l265 1514h235l-119 -676q-6 -34 -6 -70q0 -131 121 -131q85 0 147 66.5t82 181.5l109 629h235l-190 -1090h-225l28 160q-66 -98 -127.5 -143.5t-128.5 -45.5q-40 0 -65 12.5t-47 41.5l-78 -449h-236z" />
<glyph unicode="&#xb6;" d="M102 983q0 208 121.5 329.5t360.5 121.5h510l-320 -1825h-188l288 1651h-169l-289 -1651h-189l193 1102q-166 7 -242 75.5t-76 196.5z" />
<glyph unicode="&#xb7;" horiz-adv-x="466" d="M147 512q0 52 37.5 89.5t89.5 37.5t89.5 -37.5t37.5 -89.5t-37.5 -89.5t-89.5 -37.5t-89.5 37.5t-37.5 89.5z" />
<glyph unicode="&#xb8;" horiz-adv-x="559" d="M-123 -416l53 99q88 -33 123 -33q39 0 69 29t30 67q0 26 -16.5 41.5t-41.5 15.5q-19 0 -69 -16l-29 41l123 176h112l-65 -108h18q56 0 94.5 -35t38.5 -88q0 -99 -78 -169.5t-184 -70.5q-42 0 -78 10.5t-100 40.5z" />
<glyph unicode="&#xb9;" horiz-adv-x="559" d="M186 1176l23 127h22q174 0 215 151h144l-154 -874h-168l103 596h-185z" />
<glyph unicode="&#xba;" horiz-adv-x="612" d="M92 565l29 164h504l-29 -164h-504zM145 1087q0 173 107 297.5t258 124.5q114 0 179 -71t65 -197q0 -173 -107 -296.5t-258 -123.5q-114 0 -179 71t-65 195zM311 1108q0 -65 28 -102t77 -37q69 0 120.5 75.5t51.5 178.5q0 64 -28.5 101.5t-76.5 37.5q-69 0 -120.5 -75.5 t-51.5 -178.5z" />
<glyph unicode="&#xbb;" d="M113 156l41 237l200 180l-137 181l41 237l229 -295l-43 -245zM471 156l41 237l199 180l-136 181l41 237l230 -295l-43 -245z" />
<glyph unicode="&#xbc;" horiz-adv-x="1400" d="M158 -51l981 1505h131l-979 -1505h-133zM186 1176l23 127h22q174 0 215 151h144l-152 -874h-170l103 596h-185zM707 184l26 152l377 532h182l-94 -542h84l-25 -142h-83l-33 -184h-160l33 184h-307zM850 322h194l70 380z" />
<glyph unicode="&#xbd;" horiz-adv-x="1400" d="M158 -51l981 1505h131l-979 -1505h-133zM186 1176l23 127h22q174 0 215 151h144l-152 -874h-170l103 596h-185zM743 0q27 132 90.5 212t227.5 196q160 113 160 227q0 45 -24 73.5t-62 28.5q-54 0 -87.5 -42t-50.5 -132h-147q64 336 311 336q100 0 159.5 -65t59.5 -172 q0 -68 -25 -136t-69 -120q-28 -32 -50 -49t-120 -85q-93 -65 -127 -104h314l-31 -168h-529z" />
<glyph unicode="&#xbe;" horiz-adv-x="1400" d="M106 774q0 31 7 96h151q-6 -30 -6 -49q0 -54 24 -83t68 -29q58 0 94.5 51t36.5 131q0 50 -32 70t-113 20l22 131h25q145 0 145 137q0 76 -75 76q-103 0 -127 -127h-144q31 138 107.5 209.5t193.5 71.5q97 0 153 -50.5t56 -138.5q0 -160 -131 -225q88 -40 88 -152 q0 -148 -95.5 -253t-229.5 -105q-100 0 -159 59t-59 160zM231 -51l981 1505h131l-978 -1505h-134zM762 184l26 152l377 532h183l-95 -542h84l-24 -142h-84l-33 -184h-160l33 184h-307zM905 326h189l67 368z" />
<glyph unicode="&#xbf;" horiz-adv-x="1026" d="M29 -68q0 150 60 254.5t218 227.5q72 56 99.5 102.5t46.5 147.5h221q-28 -164 -73.5 -242.5t-168.5 -173.5q-78 -60 -111.5 -121t-33.5 -139q0 -69 35.5 -107.5t101.5 -38.5q75 0 132 57.5t79 147.5l6 33h238q-51 -238 -179 -358.5t-311 -120.5q-160 0 -260 87t-100 244z M461 801l49 289h246l-51 -289h-244z" />
<glyph unicode="&#xc0;" horiz-adv-x="1212" d="M-29 0l688 1470h291l168 -1470h-274l-25 303h-444l-137 -303h-267zM485 557h308l-48 588zM545 1872h258l112 -258h-170z" />
<glyph unicode="&#xc1;" horiz-adv-x="1212" d="M-29 0l688 1470h291l168 -1470h-274l-25 303h-444l-137 -303h-267zM485 557h308l-48 588zM743 1614l205 258h258l-293 -258h-170z" />
<glyph unicode="&#xc2;" horiz-adv-x="1212" d="M-29 0l688 1470h291l168 -1470h-274l-25 303h-444l-137 -303h-267zM485 557h308l-48 588zM512 1614l256 258h211l166 -258h-191l-104 127l-148 -127h-190z" />
<glyph unicode="&#xc3;" horiz-adv-x="1212" d="M-29 0l688 1470h291l168 -1470h-274l-25 303h-444l-137 -303h-267zM485 557h308l-48 588zM522 1614q46 131 105 191.5t141 60.5q14 0 107.5 -37t105.5 -37q61 0 94 82h109q-82 -246 -226 -246q-19 0 -116.5 37t-118.5 37q-58 0 -94 -88h-107z" />
<glyph unicode="&#xc4;" horiz-adv-x="1212" d="M-29 0l688 1470h291l168 -1470h-274l-25 303h-444l-137 -303h-267zM485 557h308l-48 588zM565 1626l41 236h197l-41 -236h-197zM903 1626l41 236h197l-41 -236h-197z" />
<glyph unicode="&#xc5;" horiz-adv-x="1212" d="M-29 0l688 1470h291l168 -1470h-274l-25 303h-444l-137 -303h-267zM485 557h308l-48 588zM647 1786q12 71 85.5 124.5t158.5 53.5t139.5 -54.5t42.5 -127.5q-12 -72 -86 -126t-160 -54t-139 54.5t-41 129.5zM754 1784q-6 -37 20 -62.5t70 -25.5t80.5 25.5t42.5 60.5 q6 37 -21.5 62.5t-71.5 25.5q-43 0 -78.5 -25.5t-41.5 -60.5z" />
<glyph unicode="&#xc6;" horiz-adv-x="1679" d="M-53 0l696 1470h1143l-45 -260h-625l-53 -309h561l-45 -260h-561l-66 -381h635l-45 -260h-883l56 313h-363l-141 -313h-264zM461 555h295l114 655h-108z" />
<glyph unicode="&#xc7;" horiz-adv-x="1212" d="M119 494q0 277 93 509.5t258 369t366 136.5q192 0 310 -122.5t118 -323.5q0 -41 -2 -74h-254q-6 130 -57 192t-156 62q-118 0 -213.5 -96t-148 -255t-52.5 -347q0 -152 59 -235t168 -83q105 0 182 65.5t134 211.5h252q-184 -506 -560 -541l-41 -67h19q56 0 94.5 -35 t38.5 -88q0 -99 -78 -169.5t-184 -70.5q-42 0 -78 10.5t-100 40.5l53 99q88 -33 123 -33q38 0 68 29t30 67q0 26 -16 41.5t-41 15.5q-20 0 -70 -16l-28 41l94 135q-181 20 -281 157.5t-100 373.5z" />
<glyph unicode="&#xc8;" horiz-adv-x="1120" d="M66 0l256 1470h886l-45 -260h-641l-53 -309h588l-45 -260h-588l-66 -381h668l-45 -260h-915zM504 1872h258l112 -258h-169z" />
<glyph unicode="&#xc9;" horiz-adv-x="1120" d="M66 0l256 1470h886l-45 -260h-641l-53 -309h588l-45 -260h-588l-66 -381h668l-45 -260h-915zM702 1614l205 258h258l-293 -258h-170z" />
<glyph unicode="&#xca;" horiz-adv-x="1120" d="M66 0l256 1470h886l-45 -260h-641l-53 -309h588l-45 -260h-588l-66 -381h668l-45 -260h-915zM471 1614l256 258h211l166 -258h-191l-104 127l-147 -127h-191z" />
<glyph unicode="&#xcb;" horiz-adv-x="1120" d="M66 0l256 1470h886l-45 -260h-641l-53 -309h588l-45 -260h-588l-66 -381h668l-45 -260h-915zM524 1626l41 236h197l-41 -236h-197zM862 1626l41 236h197l-41 -236h-197z" />
<glyph unicode="&#xcc;" horiz-adv-x="466" d="M45 0l258 1470h252l-258 -1470h-252zM209 1872h258l113 -258h-170z" />
<glyph unicode="&#xcd;" horiz-adv-x="466" d="M45 0l258 1470h252l-258 -1470h-252zM326 1614l204 258h258l-292 -258h-170z" />
<glyph unicode="&#xce;" horiz-adv-x="466" d="M45 0l258 1470h252l-258 -1470h-252zM135 1614l256 258h211l166 -258h-190l-105 127l-147 -127h-191z" />
<glyph unicode="&#xcf;" horiz-adv-x="466" d="M45 0l258 1470h252l-258 -1470h-252zM188 1626l41 236h197l-41 -236h-197zM526 1626l41 236h197l-41 -236h-197z" />
<glyph unicode="&#xd0;" horiz-adv-x="1212" d="M43 647l45 254h135l101 569h532q188 0 287.5 -121.5t99.5 -355.5q0 -187 -49 -366.5t-133.5 -318.5t-208 -223.5t-262.5 -84.5h-524l112 647h-135zM358 254h244q108 0 196.5 101.5t135.5 259.5t47 331q0 138 -52 204.5t-161 66.5h-242l-55 -316h279l-45 -254h-279z" />
<glyph unicode="&#xd1;" horiz-adv-x="1212" d="M55 0l256 1470h264l304 -1032l178 1032h235l-256 -1470h-252l-311 1055l-182 -1055h-236zM518 1614q46 131 105 191.5t141 60.5q14 0 107.5 -37t105.5 -37q61 0 94 82h109q-82 -246 -226 -246q-19 0 -116.5 37t-118.5 37q-58 0 -94 -88h-107z" />
<glyph unicode="&#xd2;" horiz-adv-x="1306" d="M119 502q0 167 36 321t103 278t157 216t204 142t239 50q98 0 181.5 -34t146.5 -99.5t99 -169t36 -235.5q0 -212 -56 -399t-153.5 -321t-234.5 -212t-293 -78q-215 0 -340 145.5t-125 395.5zM377 555q0 -157 68 -245.5t188 -88.5q119 0 218.5 91.5t156.5 251t57 351.5 q0 155 -68 244.5t-186 89.5q-124 0 -225 -97.5t-155 -255.5t-54 -341zM590 1872h258l113 -258h-170z" />
<glyph unicode="&#xd3;" horiz-adv-x="1306" d="M119 502q0 167 36 321t103 278t157 216t204 142t239 50q98 0 181.5 -34t146.5 -99.5t99 -169t36 -235.5q0 -212 -56 -399t-153.5 -321t-234.5 -212t-293 -78q-215 0 -340 145.5t-125 395.5zM377 555q0 -157 68 -245.5t188 -88.5q119 0 218.5 91.5t156.5 251t57 351.5 q0 155 -68 244.5t-186 89.5q-124 0 -225 -97.5t-155 -255.5t-54 -341zM791 1614l204 258h258l-292 -258h-170z" />
<glyph unicode="&#xd4;" horiz-adv-x="1306" d="M119 502q0 167 36 321t103 278t157 216t204 142t239 50q98 0 181.5 -34t146.5 -99.5t99 -169t36 -235.5q0 -212 -56 -399t-153.5 -321t-234.5 -212t-293 -78q-215 0 -340 145.5t-125 395.5zM377 555q0 -157 68 -245.5t188 -88.5q119 0 218.5 91.5t156.5 251t57 351.5 q0 155 -68 244.5t-186 89.5q-124 0 -225 -97.5t-155 -255.5t-54 -341zM559 1614l256 258h211l166 -258h-191l-104 127l-147 -127h-191z" />
<glyph unicode="&#xd5;" horiz-adv-x="1306" d="M119 502q0 167 36 321t103 278t157 216t204 142t239 50q98 0 181.5 -34t146.5 -99.5t99 -169t36 -235.5q0 -212 -56 -399t-153.5 -321t-234.5 -212t-293 -78q-215 0 -340 145.5t-125 395.5zM377 555q0 -157 68 -245.5t188 -88.5q119 0 218.5 91.5t156.5 251t57 351.5 q0 155 -68 244.5t-186 89.5q-124 0 -225 -97.5t-155 -255.5t-54 -341zM567 1614q46 131 105 191.5t141 60.5q14 0 107.5 -37t105.5 -37q61 0 94 82h109q-83 -246 -225 -246q-19 0 -117 37t-119 37q-58 0 -94 -88h-107z" />
<glyph unicode="&#xd6;" horiz-adv-x="1306" d="M119 502q0 167 36 321t103 278t157 216t204 142t239 50q98 0 181.5 -34t146.5 -99.5t99 -169t36 -235.5q0 -212 -56 -399t-153.5 -321t-234.5 -212t-293 -78q-215 0 -340 145.5t-125 395.5zM377 555q0 -157 68 -245.5t188 -88.5q119 0 218.5 91.5t156.5 251t57 351.5 q0 155 -68 244.5t-186 89.5q-124 0 -225 -97.5t-155 -255.5t-54 -341zM610 1626l41 236h197l-41 -236h-197zM948 1626l41 236h197l-41 -236h-197z" />
<glyph unicode="&#xd7;" horiz-adv-x="980" d="M205 311l203 203l-203 201l125 125l202 -203l201 203l125 -125l-201 -201l201 -203l-125 -125l-201 203l-202 -203z" />
<glyph unicode="&#xd8;" horiz-adv-x="1306" d="M-2 23l176 190q-31 77 -43 140.5t-12 150.5q0 208 57 394t154 320t233 212.5t289 78.5q107 0 192.5 -36.5t169.5 -129.5l168 183l58 -78l-174 -188q32 -79 43.5 -140.5t11.5 -150.5q0 -208 -57 -394.5t-154 -321t-234 -213.5t-290 -79q-108 0 -195 37t-166 131l-170 -184 zM377 561q0 -54 10 -115l629 682q-41 64 -90 92.5t-117 28.5q-98 0 -181.5 -62.5t-137 -162.5t-83.5 -221t-30 -242zM422 344q40 -64 89.5 -93.5t117.5 -29.5q100 0 184.5 63t137.5 164t82.5 221t29.5 240q0 58 -12 117z" />
<glyph unicode="&#xd9;" horiz-adv-x="1212" d="M135 346q0 76 12 150l170 974h256l-165 -954q-9 -46 -9 -90q0 -101 46.5 -153t136.5 -52q114 0 184.5 71.5t95.5 209.5l170 968h256l-166 -956q-47 -269 -196 -411t-385 -142q-195 0 -300.5 100t-105.5 285zM543 1872h258l112 -258h-170z" />
<glyph unicode="&#xda;" horiz-adv-x="1212" d="M135 346q0 76 12 150l170 974h256l-165 -954q-9 -46 -9 -90q0 -101 46.5 -153t136.5 -52q114 0 184.5 71.5t95.5 209.5l170 968h256l-166 -956q-47 -269 -196 -411t-385 -142q-195 0 -300.5 100t-105.5 285zM741 1614l205 258h258l-293 -258h-170z" />
<glyph unicode="&#xdb;" horiz-adv-x="1212" d="M135 346q0 76 12 150l170 974h256l-165 -954q-9 -46 -9 -90q0 -101 46.5 -153t136.5 -52q114 0 184.5 71.5t95.5 209.5l170 968h256l-166 -956q-47 -269 -196 -411t-385 -142q-195 0 -300.5 100t-105.5 285zM510 1614l256 258h211l166 -258h-191l-104 127l-148 -127h-190 z" />
<glyph unicode="&#xdc;" horiz-adv-x="1212" d="M135 346q0 76 12 150l170 974h256l-165 -954q-9 -46 -9 -90q0 -101 46.5 -153t136.5 -52q114 0 184.5 71.5t95.5 209.5l170 968h256l-166 -956q-47 -269 -196 -411t-385 -142q-195 0 -300.5 100t-105.5 285zM563 1626l41 236h197l-41 -236h-197zM901 1626l41 236h197 l-41 -236h-197z" />
<glyph unicode="&#xdd;" horiz-adv-x="1120" d="M219 1470h297l139 -639l351 639h286l-565 -919l-94 -551h-254l98 555zM700 1614l205 258h258l-293 -258h-170z" />
<glyph unicode="&#xde;" horiz-adv-x="1120" d="M66 0l256 1470h251l-34 -200h299q145 0 225 -91t80 -255q0 -114 -36.5 -222.5t-99 -191.5t-152.5 -133.5t-191 -50.5h-289l-58 -326h-251zM418 580h235q111 0 172.5 79.5t61.5 210.5q0 75 -47.5 110.5t-145.5 35.5h-198z" />
<glyph unicode="&#xdf;" horiz-adv-x="1026" d="M55 0l193 1104q31 180 156.5 286.5t306.5 106.5q160 0 245.5 -77t85.5 -222q0 -249 -176 -356q76 -53 107 -110.5t31 -147.5q0 -161 -64.5 -301.5t-181 -226t-258.5 -85.5q-30 0 -94 13l38 225h7q8 -2 43 -2q125 0 196.5 90t71.5 235q0 89 -48 129t-171 50l35 198 q128 6 175.5 63t47.5 167q0 61 -36 95t-101 34q-72 0 -122 -49t-63 -134l-188 -1085h-236z" />
<glyph unicode="&#xe0;" d="M31 207q0 167 89.5 285.5t237.5 144.5l220 39q100 18 100 117q0 96 -127 96q-74 0 -114.5 -34.5t-65.5 -117.5h-226q60 208 164 294.5t291 86.5q152 0 235 -64.5t83 -183.5q0 -27 -7 -67l-102 -590q-10 -65 -10 -100q0 -53 32 -70l-8 -43h-254q-2 33 -2 59q0 31 4 70 q-85 -87 -155 -122.5t-156 -35.5q-107 0 -168 63t-61 173zM272 272q0 -44 25 -70t68 -26q86 0 158 63t87 152l25 139q-27 -21 -62 -33t-108 -26q-101 -22 -147 -69t-46 -130zM340 1532h258l107 -299h-170z" />
<glyph unicode="&#xe1;" d="M31 207q0 167 89.5 285.5t237.5 144.5l220 39q100 18 100 117q0 96 -127 96q-74 0 -114.5 -34.5t-65.5 -117.5h-226q60 208 164 294.5t291 86.5q152 0 235 -64.5t83 -183.5q0 -27 -7 -67l-102 -590q-10 -65 -10 -100q0 -53 32 -70l-8 -43h-254q-2 33 -2 59q0 31 4 70 q-85 -87 -155 -122.5t-156 -35.5q-107 0 -168 63t-61 173zM272 272q0 -44 25 -70t68 -26q86 0 158 63t87 152l25 139q-27 -21 -62 -33t-108 -26q-101 -22 -147 -69t-46 -130zM535 1233l210 299h259l-299 -299h-170z" />
<glyph unicode="&#xe2;" d="M31 207q0 167 89.5 285.5t237.5 144.5l220 39q100 18 100 117q0 96 -127 96q-74 0 -114.5 -34.5t-65.5 -117.5h-226q60 208 164 294.5t291 86.5q152 0 235 -64.5t83 -183.5q0 -27 -7 -67l-102 -590q-10 -65 -10 -100q0 -53 32 -70l-8 -43h-254q-2 33 -2 59q0 31 4 70 q-85 -87 -155 -122.5t-156 -35.5q-107 0 -168 63t-61 173zM272 272q0 -44 25 -70t68 -26q86 0 158 63t87 152l25 139q-27 -21 -62 -33t-108 -26q-101 -22 -147 -69t-46 -130zM324 1233l243 299h211l140 -299h-191l-78 168l-135 -168h-190z" />
<glyph unicode="&#xe3;" d="M31 207q0 167 89.5 285.5t237.5 144.5l220 39q100 18 100 117q0 96 -127 96q-74 0 -114.5 -34.5t-65.5 -117.5h-226q60 208 164 294.5t291 86.5q152 0 235 -64.5t83 -183.5q0 -27 -7 -67l-102 -590q-10 -65 -10 -100q0 -53 32 -70l-8 -43h-254q-2 33 -2 59q0 31 4 70 q-85 -87 -155 -122.5t-156 -35.5q-107 0 -168 63t-61 173zM272 272q0 -44 25 -70t68 -26q86 0 158 63t87 152l25 139q-27 -21 -62 -33t-108 -26q-101 -22 -147 -69t-46 -130zM313 1253q46 131 105 191.5t141 60.5q14 0 107.5 -36.5t105.5 -36.5q32 0 54.5 19t39.5 62h109 q-82 -245 -225 -245q-19 0 -117 36.5t-119 36.5q-58 0 -94 -88h-107z" />
<glyph unicode="&#xe4;" d="M31 207q0 167 89.5 285.5t237.5 144.5l220 39q100 18 100 117q0 96 -127 96q-74 0 -114.5 -34.5t-65.5 -117.5h-226q60 208 164 294.5t291 86.5q152 0 235 -64.5t83 -183.5q0 -27 -7 -67l-102 -590q-10 -65 -10 -100q0 -53 32 -70l-8 -43h-254q-2 33 -2 59q0 31 4 70 q-85 -87 -155 -122.5t-156 -35.5q-107 0 -168 63t-61 173zM272 272q0 -44 25 -70t68 -26q86 0 158 63t87 152l25 139q-27 -21 -62 -33t-108 -26q-101 -22 -147 -69t-46 -130zM358 1266l41 235h197l-41 -235h-197zM696 1266l41 235h197l-41 -235h-197z" />
<glyph unicode="&#xe5;" d="M31 207q0 167 89.5 285.5t237.5 144.5l220 39q100 18 100 117q0 96 -127 96q-74 0 -114.5 -34.5t-65.5 -117.5h-226q60 208 164 294.5t291 86.5q152 0 235 -64.5t83 -183.5q0 -27 -7 -67l-102 -590q-10 -65 -10 -100q0 -53 32 -70l-8 -43h-254q-2 33 -2 59q0 31 4 70 q-85 -87 -155 -122.5t-156 -35.5q-107 0 -168 63t-61 173zM272 272q0 -44 25 -70t68 -26q86 0 158 63t87 152l25 139q-27 -21 -62 -33t-108 -26q-101 -22 -147 -69t-46 -130zM434 1386q12 71 85.5 125t158.5 54t139 -55t41 -128q-12 -72 -85 -126t-159 -54t-139.5 54.5 t-40.5 129.5zM539 1384q-6 -37 21 -62.5t71 -25.5t79.5 25.5t41.5 60.5q6 37 -20 62.5t-70 25.5q-43 0 -80 -25.5t-43 -60.5z" />
<glyph unicode="&#xe6;" horiz-adv-x="1492" d="M33 215q0 156 79 265.5t210 135.5l229 46q50 10 78 21t42 30t17.5 37.5t3.5 54.5q0 40 -35.5 62t-99.5 22q-77 0 -120 -37.5t-58 -116.5h-232q54 196 165 289.5t296 93.5q89 0 149.5 -28t114.5 -93q85 68 149 94.5t142 26.5q155 0 240.5 -105t85.5 -294q0 -72 -19 -201 l-8 -51h-614q-4 -62 -4 -82q0 -88 43 -136t121 -48q123 0 176 118h241q-83 -183 -198 -265.5t-269 -82.5q-116 0 -180 39t-108 137q-132 -176 -371 -176q-131 0 -198.5 62t-67.5 182zM274 272q0 -44 28.5 -70t76.5 -26q80 0 153 63t86 146l23 137q-23 -22 -60 -34t-124 -27 q-107 -20 -145 -66t-38 -123zM889 653h364l2 52q3 82 -38.5 130t-108.5 48q-78 0 -131 -55.5t-88 -174.5z" />
<glyph unicode="&#xe7;" d="M72 348q0 208 66 382.5t191 281t283 106.5q151 0 241.5 -89.5t90.5 -240.5q0 -22 -4 -88h-238q-2 93 -30 135t-90 42q-78 0 -139.5 -68.5t-93.5 -179.5t-32 -242q0 -86 35.5 -133t100.5 -47q66 0 119 52t75 138h240q-59 -189 -168 -297t-260 -125l-47 -79h18 q56 0 94.5 -35t38.5 -88q0 -99 -78 -169.5t-184 -70.5q-42 0 -78 10.5t-100 40.5l53 99q88 -33 123 -33q38 0 68 29t30 67q0 26 -16 41.5t-41 15.5q-20 0 -70 -16l-28 41l102 147q-132 17 -202 112.5t-70 260.5z" />
<glyph unicode="&#xe8;" d="M57 367q0 211 70 383t193.5 270t275.5 98q164 0 251 -102.5t87 -296.5q0 -72 -19 -201l-8 -51h-612q-6 -47 -6 -80q0 -89 43 -137.5t121 -48.5q120 0 176 118h241q-82 -182 -196 -265t-264 -83q-172 0 -262.5 101.5t-90.5 294.5zM334 653h364l2 54q3 80 -39 128t-108 48 q-78 0 -131 -55t-88 -175zM342 1532h258l107 -299h-170z" />
<glyph unicode="&#xe9;" d="M57 367q0 211 70 383t193.5 270t275.5 98q164 0 251 -102.5t87 -296.5q0 -72 -19 -201l-8 -51h-612q-6 -47 -6 -80q0 -89 43 -137.5t121 -48.5q120 0 176 118h241q-82 -182 -196 -265t-264 -83q-172 0 -262.5 101.5t-90.5 294.5zM334 653h364l2 54q3 80 -39 128t-108 48 q-78 0 -131 -55t-88 -175zM535 1233l210 299h259l-299 -299h-170z" />
<glyph unicode="&#xea;" d="M57 367q0 211 70 383t193.5 270t275.5 98q164 0 251 -102.5t87 -296.5q0 -72 -19 -201l-8 -51h-612q-6 -47 -6 -80q0 -89 43 -137.5t121 -48.5q120 0 176 118h241q-82 -182 -196 -265t-264 -83q-172 0 -262.5 101.5t-90.5 294.5zM324 1233l243 299h211l140 -299h-191 l-78 168l-135 -168h-190zM334 653h364l2 54q3 80 -39 128t-108 48q-78 0 -131 -55t-88 -175z" />
<glyph unicode="&#xeb;" d="M57 367q0 211 70 383t193.5 270t275.5 98q164 0 251 -102.5t87 -296.5q0 -72 -19 -201l-8 -51h-612q-6 -47 -6 -80q0 -89 43 -137.5t121 -48.5q120 0 176 118h241q-82 -182 -196 -265t-264 -83q-172 0 -262.5 101.5t-90.5 294.5zM334 653h364l2 54q3 80 -39 128t-108 48 q-78 0 -131 -55t-88 -175zM358 1266l41 235h197l-41 -235h-197zM696 1266l41 235h197l-41 -235h-197z" />
<glyph unicode="&#xec;" horiz-adv-x="466" d="M55 0l191 1090h233l-190 -1090h-234zM139 1532h258l107 -299h-170z" />
<glyph unicode="&#xed;" horiz-adv-x="466" d="M55 0l191 1090h233l-190 -1090h-234zM270 1233l211 299h258l-299 -299h-170z" />
<glyph unicode="&#xee;" horiz-adv-x="466" d="M55 0l191 1090h233l-190 -1090h-234zM90 1233l244 299h211l139 -299h-190l-78 168l-135 -168h-191z" />
<glyph unicode="&#xef;" horiz-adv-x="466" d="M55 0l191 1090h233l-190 -1090h-234zM125 1266l41 235h196l-40 -235h-197zM463 1266l41 235h196l-41 -235h-196z" />
<glyph unicode="&#xf0;" horiz-adv-x="1026" d="M76 387q0 183 70 341t189 250.5t257 92.5q71 0 118 -29.5t83 -99.5q-32 144 -125 268l-197 -96l-88 107l199 96q-65 65 -107 92l199 100q67 -41 117 -90l186 90l86 -106l-184 -90q83 -133 118 -251.5t35 -266.5q0 -223 -75.5 -412t-211 -300.5t-299.5 -111.5 q-172 0 -271 112t-99 304zM319 430q0 -104 45 -160.5t128 -56.5q79 0 144 62.5t98.5 154t33.5 186.5q0 100 -45 156.5t-123 56.5q-117 0 -199 -116.5t-82 -282.5z" />
<glyph unicode="&#xf1;" horiz-adv-x="1026" d="M47 0l191 1090h225l-29 -166q71 104 141 149t164 45q120 0 188 -72t68 -200q0 -48 -8 -92l-131 -754h-235l114 662q10 62 10 92q0 59 -32 91t-90 32q-87 0 -149.5 -67.5t-82.5 -184.5l-108 -625h-236zM360 1253q46 131 105 191.5t141 60.5q14 0 107.5 -36.5t105.5 -36.5 q32 0 54.5 19t39.5 62h109q-82 -245 -225 -245q-19 0 -117 36.5t-119 36.5q-58 0 -94 -88h-107z" />
<glyph unicode="&#xf2;" horiz-adv-x="1026" d="M76 389q0 152 44.5 287.5t120 232t181.5 153t225 56.5q172 0 271.5 -112t99.5 -306q0 -200 -75 -367.5t-207 -264.5t-290 -97q-172 0 -271 112t-99 306zM319 428q0 -215 170 -215q85 0 150.5 64.5t99 166.5t33.5 220q0 213 -170 213q-85 0 -151 -66t-99 -167t-33 -216z M387 1532h258l107 -299h-170z" />
<glyph unicode="&#xf3;" horiz-adv-x="1026" d="M76 389q0 152 44.5 287.5t120 232t181.5 153t225 56.5q172 0 271.5 -112t99.5 -306q0 -200 -75 -367.5t-207 -264.5t-290 -97q-172 0 -271 112t-99 306zM319 428q0 -215 170 -215q85 0 150.5 64.5t99 166.5t33.5 220q0 213 -170 213q-85 0 -151 -66t-99 -167t-33 -216z M582 1233l211 299h258l-299 -299h-170z" />
<glyph unicode="&#xf4;" horiz-adv-x="1026" d="M76 389q0 152 44.5 287.5t120 232t181.5 153t225 56.5q172 0 271.5 -112t99.5 -306q0 -200 -75 -367.5t-207 -264.5t-290 -97q-172 0 -271 112t-99 306zM319 428q0 -215 170 -215q85 0 150.5 64.5t99 166.5t33.5 220q0 213 -170 213q-85 0 -151 -66t-99 -167t-33 -216z M371 1233l243 299h211l140 -299h-191l-78 168l-135 -168h-190z" />
<glyph unicode="&#xf5;" horiz-adv-x="1026" d="M76 389q0 152 44.5 287.5t120 232t181.5 153t225 56.5q172 0 271.5 -112t99.5 -306q0 -200 -75 -367.5t-207 -264.5t-290 -97q-172 0 -271 112t-99 306zM319 428q0 -215 170 -215q85 0 150.5 64.5t99 166.5t33.5 220q0 213 -170 213q-85 0 -151 -66t-99 -167t-33 -216z M360 1253q46 131 105 191.5t141 60.5q14 0 107.5 -36.5t105.5 -36.5q32 0 54.5 19t39.5 62h109q-82 -245 -225 -245q-19 0 -117 36.5t-119 36.5q-58 0 -94 -88h-107z" />
<glyph unicode="&#xf6;" horiz-adv-x="1026" d="M76 389q0 152 44.5 287.5t120 232t181.5 153t225 56.5q172 0 271.5 -112t99.5 -306q0 -200 -75 -367.5t-207 -264.5t-290 -97q-172 0 -271 112t-99 306zM319 428q0 -215 170 -215q85 0 150.5 64.5t99 166.5t33.5 220q0 213 -170 213q-85 0 -151 -66t-99 -167t-33 -216z M406 1266l40 235h197l-41 -235h-196zM743 1266l41 235h197l-41 -235h-197z" />
<glyph unicode="&#xf7;" horiz-adv-x="980" d="M158 424v176h747v-176h-747zM406 145q0 53 36 90t90 37q52 0 89.5 -37t37.5 -90q0 -54 -37 -90.5t-90 -36.5q-54 0 -90 36.5t-36 90.5zM406 881q0 53 36 90t90 37q52 0 89.5 -37t37.5 -90q0 -54 -37 -90.5t-90 -36.5q-54 0 -90 36.5t-36 90.5z" />
<glyph unicode="&#xf8;" horiz-adv-x="1026" d="M-25 0l150 158q-28 63 -38.5 114t-10.5 119q0 149 44.5 283.5t121 231.5t182.5 154.5t223 57.5q88 0 154 -28.5t127 -92.5l141 150l47 -66l-145 -151q27 -64 37 -114t10 -118q0 -148 -44 -282t-120 -231.5t-182.5 -155.5t-225.5 -58q-88 0 -152.5 28t-123.5 91l-141 -149 zM322 430q0 -1 4 -63l417 438q-26 38 -58 55t-79 17q-123 0 -203.5 -128t-80.5 -319zM354 283q44 -70 133 -70q124 0 204.5 129.5t80.5 316.5q0 31 -2 60z" />
<glyph unicode="&#xf9;" horiz-adv-x="1026" d="M102 246q0 68 11 127l127 717h235l-119 -676q-6 -34 -6 -70q0 -131 121 -131q86 0 146.5 66t80.5 182l111 629h235l-190 -1090h-225l28 160q-69 -100 -142 -144.5t-169 -44.5q-117 0 -180.5 71.5t-63.5 203.5zM387 1532h258l107 -299h-170z" />
<glyph unicode="&#xfa;" horiz-adv-x="1026" d="M102 246q0 68 11 127l127 717h235l-119 -676q-6 -34 -6 -70q0 -131 121 -131q86 0 146.5 66t80.5 182l111 629h235l-190 -1090h-225l28 160q-69 -100 -142 -144.5t-169 -44.5q-117 0 -180.5 71.5t-63.5 203.5zM582 1233l211 299h258l-299 -299h-170z" />
<glyph unicode="&#xfb;" horiz-adv-x="1026" d="M102 246q0 68 11 127l127 717h235l-119 -676q-6 -34 -6 -70q0 -131 121 -131q86 0 146.5 66t80.5 182l111 629h235l-190 -1090h-225l28 160q-69 -100 -142 -144.5t-169 -44.5q-117 0 -180.5 71.5t-63.5 203.5zM371 1233l243 299h211l140 -299h-191l-78 168l-135 -168 h-190z" />
<glyph unicode="&#xfc;" horiz-adv-x="1026" d="M102 246q0 68 11 127l127 717h235l-119 -676q-6 -34 -6 -70q0 -131 121 -131q86 0 146.5 66t80.5 182l111 629h235l-190 -1090h-225l28 160q-69 -100 -142 -144.5t-169 -44.5q-117 0 -180.5 71.5t-63.5 203.5zM406 1266l40 235h197l-41 -235h-196zM743 1266l41 235h197 l-41 -235h-197z" />
<glyph unicode="&#xfd;" d="M8 -434l41 229q28 -4 49 -4q74 0 109 32.5t69 131.5l-131 1135h263l51 -811l325 811h250l-495 -1072q-54 -117 -85.5 -181.5t-67 -123t-57.5 -82.5t-57.5 -43t-67 -22.5t-85.5 -3.5zM535 1233l210 299h259l-299 -299h-170z" />
<glyph unicode="&#xfe;" horiz-adv-x="1026" d="M-31 -424l330 1894h236l-93 -526q69 94 136 134t153 40q135 0 213 -103t78 -282q0 -194 -63 -368.5t-178 -284t-253 -109.5q-92 0 -143 40t-82 134l-98 -569h-236zM350 414q0 -98 41.5 -152.5t116.5 -54.5q74 0 136 67.5t95 170.5t33 212q0 104 -39.5 158.5t-114.5 54.5 q-64 0 -116.5 -42.5t-84.5 -110t-49.5 -146.5t-17.5 -157z" />
<glyph unicode="&#xff;" d="M8 -434l41 229q28 -4 49 -4q74 0 109 32.5t69 131.5l-131 1135h263l51 -811l325 811h250l-495 -1072q-54 -117 -85.5 -181.5t-67 -123t-57.5 -82.5t-57.5 -43t-67 -22.5t-85.5 -3.5zM358 1266l41 235h197l-41 -235h-197zM696 1266l41 235h197l-41 -235h-197z" />
<glyph unicode="&#x152;" horiz-adv-x="1679" d="M104 475q0 202 50 390.5t136.5 330.5t210.5 227.5t263 85.5q86 0 141 -28.5t99 -96.5l14 86h790l-45 -260h-559l-55 -309h522l-45 -260h-522l-66 -381h559l-45 -260h-790l18 102q-74 -81 -134.5 -111t-147.5 -30q-185 0 -289.5 136.5t-104.5 377.5zM356 551 q0 -161 55 -248.5t156 -87.5q87 0 160.5 55.5t87.5 130.5l117 666q4 28 4 37q0 66 -49 108.5t-131 42.5q-87 0 -164 -63.5t-127.5 -165.5t-79.5 -226.5t-29 -248.5z" />
<glyph unicode="&#x153;" horiz-adv-x="1585" d="M76 389q0 202 75 369.5t205.5 263.5t286.5 96q183 0 283 -164q94 94 162.5 129t160.5 35q158 0 244 -104t86 -295q0 -79 -18 -201l-9 -51h-614q-4 -62 -4 -82q0 -89 43 -136.5t121 -47.5q120 0 176 118h242q-82 -182 -196.5 -265t-264.5 -83q-105 0 -171.5 35t-117.5 117 q-70 -79 -146.5 -115.5t-173.5 -36.5q-172 0 -271 112t-99 306zM319 426q0 -213 170 -213q85 0 151 65.5t100 167t34 216.5q0 215 -170 215q-86 0 -152 -66t-99.5 -167.5t-33.5 -217.5zM977 653h366l3 54q3 80 -39.5 128t-108.5 48q-78 0 -132 -56t-89 -174z" />
<glyph unicode="&#x178;" horiz-adv-x="1120" d="M219 1470h297l139 -639l351 639h286l-565 -919l-94 -551h-254l98 555zM522 1626l41 236h197l-41 -236h-197zM860 1626l41 236h197l-41 -236h-197z" />
<glyph unicode="&#x2c6;" horiz-adv-x="559" d="M137 1233l244 299h211l139 -299h-190l-78 168l-135 -168h-191z" />
<glyph unicode="&#x2dc;" horiz-adv-x="559" d="M127 1253q46 131 105 191.5t141 60.5q14 0 107.5 -36.5t105.5 -36.5q32 0 54.5 19t39.5 62h108q-82 -245 -225 -245q-19 0 -116.5 36.5t-118.5 36.5q-59 0 -95 -88h-106z" />
<glyph unicode="&#x2000;" horiz-adv-x="982" />
<glyph unicode="&#x2001;" horiz-adv-x="1964" />
<glyph unicode="&#x2002;" horiz-adv-x="982" />
<glyph unicode="&#x2003;" horiz-adv-x="1964" />
<glyph unicode="&#x2004;" horiz-adv-x="654" />
<glyph unicode="&#x2005;" horiz-adv-x="491" />
<glyph unicode="&#x2006;" horiz-adv-x="327" />
<glyph unicode="&#x2007;" horiz-adv-x="327" />
<glyph unicode="&#x2008;" horiz-adv-x="245" />
<glyph unicode="&#x2009;" horiz-adv-x="392" />
<glyph unicode="&#x200a;" horiz-adv-x="109" />
<glyph unicode="&#x2010;" horiz-adv-x="559" d="M61 440l48 267h466l-47 -267h-467z" />
<glyph unicode="&#x2011;" horiz-adv-x="559" d="M61 440l48 267h466l-47 -267h-467z" />
<glyph unicode="&#x2012;" horiz-adv-x="559" d="M61 440l48 267h466l-47 -267h-467z" />
<glyph unicode="&#x2013;" d="M20 465l37 217h934l-37 -217h-934z" />
<glyph unicode="&#x2014;" horiz-adv-x="1679" d="M20 465l37 217h1680l-37 -217h-1680z" />
<glyph unicode="&#x2018;" horiz-adv-x="466" d="M217 930l37 209q26 148 98 233.5t193 116.5l-19 -105q-73 -28 -107.5 -70.5t-49.5 -123.5h129l-45 -260h-236z" />
<glyph unicode="&#x2019;" horiz-adv-x="466" d="M219 911l19 105q72 28 106 70t51 124h-129l45 260h236l-37 -208q-26 -148 -98 -234t-193 -117z" />
<glyph unicode="&#x201a;" horiz-adv-x="466" d="M8 -299l19 104q72 28 106 70.5t51 124.5h-129l45 260h236l-37 -209q-26 -149 -97.5 -234t-193.5 -116z" />
<glyph unicode="&#x201c;" horiz-adv-x="839" d="M209 930l37 209q26 150 97 234.5t194 115.5l-19 -105q-72 -28 -106.5 -70t-51.5 -124h129l-45 -260h-235zM598 930l37 209q26 150 97 234.5t194 115.5l-19 -105q-72 -28 -106 -70t-51 -124h129l-45 -260h-236z" />
<glyph unicode="&#x201d;" horiz-adv-x="839" d="M209 911l18 105q72 28 106.5 70t51.5 124h-129l45 260h236l-37 -208q-28 -149 -99 -234.5t-192 -116.5zM600 911l18 105q72 28 106.5 70t51.5 124h-129l45 260h236l-37 -208q-26 -148 -98 -234t-193 -117z" />
<glyph unicode="&#x201e;" horiz-adv-x="839" d="M-2 -299l18 104q72 28 106.5 70.5t51.5 124.5h-129l45 260h236l-37 -209q-28 -149 -98.5 -234t-192.5 -116zM389 -299l19 104q72 28 106 70.5t51 124.5h-129l45 260h236l-37 -209q-26 -148 -98 -233.5t-193 -116.5z" />
<glyph unicode="&#x2022;" horiz-adv-x="587" d="M78 664q0 161 104.5 285t239.5 124q97 0 160 -74.5t63 -191.5q0 -104 -48.5 -199.5t-128.5 -153t-167 -57.5q-98 0 -160.5 75t-62.5 192z" />
<glyph unicode="&#x2026;" horiz-adv-x="1679" d="M92 0l51 299h254l-53 -299h-252zM651 0l54 299h251l-53 -299h-252zM1210 0l54 299h252l-52 -299h-254z" />
<glyph unicode="&#x202f;" horiz-adv-x="392" />
<glyph unicode="&#x2039;" horiz-adv-x="559" d="M156 451l43 245l331 295l-41 -237l-200 -181l137 -180l-41 -237z" />
<glyph unicode="&#x203a;" horiz-adv-x="559" d="M104 156l41 237l201 180l-137 181l41 237l229 -295l-43 -245z" />
<glyph unicode="&#x205f;" horiz-adv-x="491" />
<glyph unicode="&#x20ac;" horiz-adv-x="956" d="M-61 473l94 170h98q2 8 6.5 27t7.5 32h-157l94 170h102q47 169 58 203t34 80q109 217 363 217q107 0 196.5 -35t141.5 -98l-125 -213q-89 115 -199 115q-67 0 -102 -57t-68 -212h289l-94 -170h-229q-3 -15 -8 -33t-7 -26h215l-94 -170h-156q-28 -125 -28 -176 q0 -96 106 -96q136 0 242 82l-62 -285q-89 -29 -213 -29q-358 0 -358 334q0 75 14 170h-161z" />
<glyph unicode="&#x2122;" horiz-adv-x="1720" d="M385 1305l29 165h590l-29 -165h-207l-109 -625h-176l109 625h-207zM967 680l137 790h248l10 -534l201 534h237l-139 -790h-166l86 494l-184 -494h-170l-8 487l-86 -487h-166z" />
<glyph unicode="&#x25fc;" horiz-adv-x="1085" d="M0 0v1085h1085v-1085h-1085z" />
</font>
</defs>
</svg>
